<mxfile host="app.diagrams.net" agent="Mozilla/5.0 (Macintosh; Intel Mac OS X 10_15_7) AppleWebKit/605.1.15 (KHTML, like Gecko) Version/18.1.1 Safari/605.1.15" version="25.0.1">
  <diagram name="Page-1" id="jJcxfXXq66Awv4MQVSxs">
    <mxGraphModel dx="790" dy="537" grid="1" gridSize="10" guides="1" tooltips="1" connect="1" arrows="1" fold="1" page="1" pageScale="1" pageWidth="1169" pageHeight="827" math="0" shadow="0">
      <root>
        <mxCell id="0" />
        <mxCell id="1" parent="0" />
        <mxCell id="elf1hlTlJ4yZ5ydXjCup-15" value="" style="rounded=0;whiteSpace=wrap;html=1;fillColor=#dae8fc;strokeColor=#6c8ebf;" parent="1" vertex="1">
          <mxGeometry x="200" y="200" width="40" height="40" as="geometry" />
        </mxCell>
        <mxCell id="elf1hlTlJ4yZ5ydXjCup-24" value="" style="shape=parallelogram;perimeter=parallelogramPerimeter;whiteSpace=wrap;html=1;fixedSize=1;size=10;fillColor=#dae8fc;strokeColor=#6c8ebf;" parent="1" vertex="1">
          <mxGeometry x="200" y="190" width="50" height="10" as="geometry" />
        </mxCell>
        <mxCell id="elf1hlTlJ4yZ5ydXjCup-51" value="" style="shape=parallelogram;perimeter=parallelogramPerimeter;whiteSpace=wrap;html=1;fixedSize=1;rotation=90;size=10;fillColor=#D5E8D4;strokeColor=#009900;flipH=1;" parent="1" vertex="1">
          <mxGeometry x="203.5" y="192.5" width="14" height="10" as="geometry" />
        </mxCell>
        <mxCell id="elf1hlTlJ4yZ5ydXjCup-1" value="" style="shape=image;verticalLabelPosition=bottom;labelBackgroundColor=default;verticalAlign=top;aspect=fixed;imageAspect=0;image=data:image/png,iVBORw0KGgoAAAANSUhEUgAAAHYAAAB2CAYAAAAdp2cRAAAMP2lDQ1BJQ0MgUHJvZmlsZQAASImVVwdYU8kWnluSkEBoAQSkhN4EASkBpITQAkgvgo2QBAglxoSgYkcXFVy7iIANXRVR7IDYETuLYO+LBQVlXSzYlTcpoOu+8r3zfXPvn3/O/OfMuXMzdwDQOMkRiXJRTQDyhPniuNBA+tiUVDqpGyAAA2RAABQOVyJixsREAmiD97/buxvQG9pVR5nWP/v/q2nx+BIuAEgMxOk8CTcP4oMA4FVckTgfAKKMt5iaL5Jh2ICOGCYI8SIZzlTgKhlOV+C9cp+EOBbELQCoqHE44kwA1NshTy/gZkIN9T6InYU8gRAADTrEfnl5k3kQp0FsC31EEMv0Gek/6GT+TTN9SJPDyRzCirnITSVIIBHlcqb/n+X435aXKx2MYQ2bWpY4LE42Z1i3WzmTI2RYDeJeYXpUNMTaEH8Q8OT+EKOULGlYosIfNeJKWLBmQA9iZx4nKAJiI4hDhLlRkUo+PUMQwoYYrhB0miCfnQCxPsSL+JLgeKXPJvHkOGUstD5DzGIq+fMcsTyuLNYDaU4iU6n/OovPVupj6oVZCckQUyC2LBAkRUGsDrGTJCc+QukzujCLFTXoI5bGyfK3hDiOLwwNVOhjBRnikDilf0meZHC+2KYsATtKiffnZyWEKeqDtXA58vzhXLB2vpCZOKjDl4yNHJwLjx8UrJg71s0XJsYrdT6I8gPjFGNxiig3RumPm/NzQ2W8OcRukoJ45Vg8KR8uSIU+niHKj0lQ5IkXZnPCYxT54MtBJGCBIEAHUtjSwWSQDQRtvQ298JeiJwRwgBhkAj5wVDKDI5LlPUJ4jQeF4E+I+EAyNC5Q3ssHBZD/OsQqro4gQ95bIB+RA55CnAciQC78LZWPEg5FSwJPICP4R3QObFyYby5ssv5/zw+y3xkmZCKVjHQwIl1j0JMYTAwihhFDiHa4Ie6H++CR8BoAmyvOwL0G5/Hdn/CU0EF4RLhO6CTcniQoEv+U5RjQCfVDlLVI/7EWuDXUdMcDcV+oDpVxPdwQOOJuMA4T94eR3SHLUuYtqwr9J+2/zeCHp6H0IzuTUfIwcgDZ9ueR6vbq7kMqslr/WB9FrulD9WYN9fwcn/VD9XnwHvGzJ7YIO4Cdw05hF7CjWAOgYyewRqwVOybDQ6vriXx1DUaLk+eTA3UE/4g3+GRllZQ41zr3OH9R9OXzp8n+owFrsmi6WJCZlU9nwh2BT2cLuU4j6K7Orm4AyPYXxd/Xm1j5voHotX7n5v8BgO+JgYGBI9+58BMA7POEr//h75wtA24dqgCcP8yVigsUHC67wB0LaMA3zQCYAAtgC+fjCjyADwgAwSAcRIMEkAImwuyz4DoXg6lgJpgHikEpWA7WgAqwEWwBO8BusB80gKPgFDgLLoF2cB3chaunC7wAfeAd+IwgCAmhIjTEADFFrBAHxBVhIH5IMBKJxCEpSBqSiQgRKTITmY+UIiuRCmQzUoPsQw4jp5ALSAdyG3mI9CCvkU8ohqqhOqgxao2ORBkoE41AE9AJaCY6BS1EF6BL0XK0Gt2F1qOn0EvodbQTfYH2YwBTxfQwM8wRY2AsLBpLxTIwMTYbK8HKsGqsDmuCz/kq1on1Yh9xIk7D6bgjXMFheCLOxafgs/EleAW+A6/HW/Cr+EO8D/9GoBKMCA4EbwKbMJaQSZhKKCaUEbYRDhHOwHepi/COSCTqEW2InvBdTCFmE2cQlxDXE/cQTxI7iI+J/SQSyYDkQPIlRZM4pHxSMWkdaRfpBOkKqYv0QUVVxVTFVSVEJVVFqFKkUqayU+W4yhWVZyqfyZpkK7I3OZrMI08nLyNvJTeRL5O7yJ8pWhQbii8lgZJNmUcpp9RRzlDuUd6oqqqaq3qpxqoKVOeqlqvuVT2v+lD1o5q2mr0aS228mlRtqdp2tZNqt9XeUKlUa2oANZWaT11KraGepj6gflCnqTups9V56nPUK9Xr1a+ov9Qga1hpMDUmahRqlGkc0Lis0atJ1rTWZGlyNGdrVmoe1ryp2a9F03LRitbK01qitVPrgla3NknbWjtYm6e9QHuL9mntxzSMZkFj0bi0+bSttDO0Lh2ijo0OWydbp1Rnt06bTp+utq6bbpLuNN1K3WO6nXqYnrUeWy9Xb5nefr0bep+GGQ9jDuMPWzysbtiVYe/1h+sH6PP1S/T36F/X/2RANwg2yDFYYdBgcN8QN7Q3jDWcarjB8Ixh73Cd4T7DucNLhu8ffscINbI3ijOaYbTFqNWo39jEONRYZLzO+LRxr4meSYBJtslqk+MmPaY0Uz9Tgelq0xOmz+m6dCY9l15Ob6H3mRmZhZlJzTabtZl9NrcxTzQvMt9jft+CYsGwyLBYbdFs0WdpajnGcqZlreUdK7IVwyrLaq3VOav31jbWydYLrRusu230bdg2hTa1Nvdsqbb+tlNsq22v2RHtGHY5duvt2u1Re3f7LPtK+8sOqIOHg8BhvUPHCMIIrxHCEdUjbjqqOTIdCxxrHR866TlFOhU5NTi9HGk5MnXkipHnRn5zdnfOdd7qfNdF2yXcpcilyeW1q70r17XS9doo6qiQUXNGNY565ebgxnfb4HbLneY+xn2he7P7Vw9PD7FHnUePp6VnmmeV502GDiOGsYRx3ovgFeg1x+uo10dvD+987/3ef/k4+uT47PTpHm0zmj966+jHvua+HN/Nvp1+dL80v01+nf5m/hz/av9HARYBvIBtAc+Ydsxs5i7my0DnQHHgocD3LG/WLNbJICwoNKgkqC1YOzgxuCL4QYh5SGZIbUhfqHvojNCTYYSwiLAVYTfZxmwuu4bdF+4ZPiu8JUItIj6iIuJRpH2kOLJpDDomfMyqMfeirKKEUQ3RIJodvSr6foxNzJSYI7HE2JjYytincS5xM+POxdPiJ8XvjH+XEJiwLOFuom2iNLE5SSNpfFJN0vvkoOSVyZ1jR46dNfZSimGKIKUxlZSalLottX9c8Lg147rGu48vHn9jgs2EaRMuTDScmDvx2CSNSZxJB9IIaclpO9O+cKI51Zz+dHZ6VXofl8Vdy33BC+Ct5vXwffkr+c8yfDNWZnRn+mauyuzJ8s8qy+oVsAQVglfZYdkbs9/nROdszxnITc7dk6eSl5Z3WKgtzBG2TDaZPG1yh8hBVCzqnOI9Zc2UPnGEeJsEkUyQNObrwA/5Vqmt9BfpwwK/gsqCD1OTph6YpjVNOK11uv30xdOfFYYU/jYDn8Gd0TzTbOa8mQ9nMWdtno3MTp/dPMdizoI5XXND5+6YR5mXM+/3IueilUVv5yfPb1pgvGDugse/hP5SW6xeLC6+udBn4cZF+CLBorbFoxavW/ythFdysdS5tKz0yxLukou/uvxa/uvA0oylbcs8lm1YTlwuXH5jhf+KHSu1VhaufLxqzKr61fTVJavfrpm05kKZW9nGtZS10rWd5ZHljess1y1f96Uiq+J6ZWDlniqjqsVV79fz1l/ZELChbqPxxtKNnzYJNt3aHLq5vtq6umwLcUvBlqdbk7ae+43xW802w22l275uF27v3BG3o6XGs6Zmp9HOZbVorbS2Z9f4Xe27g3Y31jnWbd6jt6d0L9gr3ft8X9q+G/sj9jcfYByoO2h1sOoQ7VBJPVI/vb6vIauhszGlseNw+OHmJp+mQ0ecjmw/ana08pjusWXHKccXHB84UXii/6ToZO+pzFOPmyc13z099vS1ltiWtjMRZ86fDTl7+hzz3InzvuePXvC+cPgi42LDJY9L9a3urYd+d//9UJtHW/1lz8uN7V7tTR2jO45f8b9y6mrQ1bPX2NcuXY+63nEj8catm+Nvdt7i3eq+nXv71Z2CO5/vzr1HuFdyX/N+2QOjB9V/2P2xp9Oj89jDoIetj+If3X3MffziieTJl64FT6lPy56ZPqvpdu0+2hPS0/583POuF6IXn3uL/9T6s+ql7cuDfwX81do3tq/rlfjVwOslbwzebH/r9ra5P6b/wbu8d5/fl3ww+LDjI+PjuU/Jn559nvqF9KX8q93Xpm8R3+4N5A0MiDhijvxTAIMNzcgA4PV2AKgpANDg+YwyTnH+kxuiOLPKEfhPWHFGlJsHAHXw+z22F37d3ARg71Z4/IL6GuMBiKECkOAF0FGjhtrgWU1+rpQZEZ4DNkV9Tc9LB//GFGfOH/L++Q5kqm7g5/u/AEGUfCaoxhoyAAAAimVYSWZNTQAqAAAACAAEARoABQAAAAEAAAA+ARsABQAAAAEAAABGASgAAwAAAAEAAgAAh2kABAAAAAEAAABOAAAAAAAAAJAAAAABAAAAkAAAAAEAA5KGAAcAAAASAAAAeKACAAQAAAABAAAAdqADAAQAAAABAAAAdgAAAABBU0NJSQAAAFNjcmVlbnNob3TOuJjvAAAACXBIWXMAABYlAAAWJQFJUiTwAAAB1mlUWHRYTUw6Y29tLmFkb2JlLnhtcAAAAAAAPHg6eG1wbWV0YSB4bWxuczp4PSJhZG9iZTpuczptZXRhLyIgeDp4bXB0az0iWE1QIENvcmUgNi4wLjAiPgogICA8cmRmOlJERiB4bWxuczpyZGY9Imh0dHA6Ly93d3cudzMub3JnLzE5OTkvMDIvMjItcmRmLXN5bnRheC1ucyMiPgogICAgICA8cmRmOkRlc2NyaXB0aW9uIHJkZjphYm91dD0iIgogICAgICAgICAgICB4bWxuczpleGlmPSJodHRwOi8vbnMuYWRvYmUuY29tL2V4aWYvMS4wLyI+CiAgICAgICAgIDxleGlmOlBpeGVsWURpbWVuc2lvbj4xMTg8L2V4aWY6UGl4ZWxZRGltZW5zaW9uPgogICAgICAgICA8ZXhpZjpQaXhlbFhEaW1lbnNpb24+MTE4PC9leGlmOlBpeGVsWERpbWVuc2lvbj4KICAgICAgICAgPGV4aWY6VXNlckNvbW1lbnQ+U2NyZWVuc2hvdDwvZXhpZjpVc2VyQ29tbWVudD4KICAgICAgPC9yZGY6RGVzY3JpcHRpb24+CiAgIDwvcmRmOlJERj4KPC94OnhtcG1ldGE+CkULC9cAAAAcaURPVAAAAAIAAAAAAAAAOwAAACgAAAA7AAAAOwAAJds0EgSrAAAlp0lEQVR4Aezd2Y9fyXUf8NtcmmSzuQ83kTOUZuHMSJZGsgxbsWzFcITYjvyYxdkeAiSvQYAACfJX5MH/Q/IQBIElGEmMwBDkh0SWbEnWOiONZjT7cB2SzaWbS+f7qbqnf7d/00NyRooQGzpE/+69dWs5Vd86p06dqrpc+DcfOb2+e/u2Aa3euzdcWL09XL1ztz1vXxiGI4s7h/07tw/rCdm2sDD84MqN4flrK8Ote+sJWx9O7N41PLq0e1hM5PV7Q4u3dnd9uLcuRX9eyrtd27cPC0mPtuWybej3fteS8JWVm8PtMX1eDgd27HDZoJt37w73Wu4bQZtu5Lcr9ei5yn8Y3rq1Nly6faeFJeth/47tqcuOjVx2JvKe8DWlR3Yttnwq7HbqeXesi7xX7t4ZVu/0ulWca3fu1G27PrG8J+0h3/XUedvw9s1bwzcvr7R6S7mUd48t7drgY3een9q3ZyMPzXRt7W5wwLtS7w3X0jjn125v1E8ofIoWUuNju3YMS2k3ZSz82ydOry9t97A+3Lp7b3gjjXElGajLYhrq1J7F4fDiYnu/PSV+652V4a+uXBtWA55/pwLs48tLw2LQqupeDwh3AD8G7AkHi9vS1CMju3dsG/YszBoUsD+6emO4UwnC2N4wuGPsCAC9ns5WDVyVmV7xtpw0VVfX19Kg51IXhJWDAfVI/hCg8aSRK43w47t3DhpafOErKfd2+NPAntVtNe1UXQhv19J5qu7inN2/NOze1vPYHmBfuXFz+NqlqwE5L0PLKfepfXvbvXQ6/hP79w6zFhmGd9bupFPeHsu5Fz660FVnr/JaJvkhLEfSKdUHLhvAikAq9PLLY2Oo+Kk9u4ZDu3a29Brvm5evBVzAdvnx/okRWJEUeGMEtmq76z7Aaq7V9bsN2LURWMwDiYYoWknvfRCwDaQxiYYHrF6O8HUAsMn3XuJ43pX67R0bQhx0YvdiA9a9rHQoHU9+2AH0rTRysYbl6+FNR0F4f2oCrDq8euPW8NULV4Zg3Tr7vgjMU/uWW3x8APapAFugaRMYXJ4Aey1lno82HavX0k5/pD0a3vdGK+Fp4V9HFQNMgjWqOBnqgWhnusGBnTsTeVbkG7dWhzfDqOZaSA778v6RxS5dmJTpxTB0cwRePo9GqnUOEijOaoC/nYjulXs75WL6blPvCQhN1ap4t5Imr9+T1OFgQKvWwfHrN1eHt8fG0PCk8Wi0D8KnNE1KqnoJfyR87oJACG+X1taGmym4GhQL6xIXJeNzq6sbwIr30QPLTcWLBdjzq2vDC9FIEd5Gi2HyyCgs4uj4jy3t2ShDHlej8q+u3hnV93qGyfUmMD2HIZ08f5MGUQ5hKKgW/tWZk+tUsDKpz+u5d0XGSWrodsKQ0MNhiMhvS29fSIDeqhdvpEmcH12/0ca2uwEM/d7xI8NH0yN3JI1yvn/1+vDSyo1hfWwt49DeNj72AJBfT+fqI33L4r4/+NIRjoe3bWPrUU2v3lgdzkVqWzmJ9OjepQwbu1tFlEQSdcDerXsRS2mZHcnDe38vX781XCE5eYDn4dR9H6kY32ufHwS00ibSfPrQ/i45uUfiTofltXRStkzRjmS+L3aMtEU3I6E3Gm89PfD3JJ68ECG8NddAsMBHMB4W/mWAvRlgVMUYp6IbIIVpRhKJQvA9sbSYBgywSS2NAd54UBXTGX6wcr0DqyVCXzj5yPDcgX1NYhX6vSsrww+vBdi8UxmNtjfjvDzRzxLYCzfXWiF3U5czAfbJGCn6rZIYi4aNeWB3jp1DnJfSSd+5rX16A5PofZGM4v1O8v1+gF1LpuRcmk8f3gxsgjbIe0Pe27dmwNIcyzu1predaKjqdMoCbB82Rt7z/gaxHam1GQEDbMI2AQucm6ns3TGBxqCGClgNcjzG1BTYKwHWeFBqQVHPB9gLDIoR2N+fALstKH474/SPIrG6CyY0GmMJwEiy1vv647t+lSFqV5i9wRl68xL7ExKbP134Xury4dgCgJW/9FsBa4xqht5Yxoupy+UAqyz8Hg2wzbKWRzLRNt+LBoqANVKXX5kDVlljn21xCNKbsWU6ZTgYge16ondsNsytEQf1nQIrHamfAiuMHcJOwcPCv3j0xDqxlqnrtVSiVEAvgrkvGdVsgM44FYldCAoYXkuNbmY88A6p3wsBjaoZ6zp87pHDwzMH9rQCgffyyq0YNqstfUuUn92j+vMsqxv3TG9mtENhkxRrqbhpxlhsm16cCm/V60W/nAa8Fm0iLBOwjLG7onH6NMN7Q0VJhdxRm6a1snppF1MP0tOf1pvNQV0rVzT1fun6zQasZ3+fOLQ8Wqd5CGWOMQAT4cUUip1RFGFs05R6dgXSjaTp5SzEoNuWMbQPAd5vBaxhoWjhDz50dN2YosFZgC/HMFIZpCcdSGaVoUIOZiw4GANEfJVayntxtgsIkVyGwoWMS/fScOh4LOf9MbL0JLQjNdkmswmZRmwKGqVdFDnvSRkaxf3OjNUMo/996XI6oxidj8f37N6Qerwdj5XIJpCxvKmpUlXSKEJ4kby/dy3DSOsM/d2jyQPvNS9vQ9BE/KjA0lby8epUOs9i2lTemuVcpPP5DD3yR/Jjc8zTJNukWR3ein1QNsNy0hyJkVr8zgMrLZ8DW4OmXPhHJ4+uaygMMIJ+HGm6ECsOF6TkUDIsY0GmBwKsaYMCVYoldmhiFWvn569cHy7GmtS46HAK1DnKQWEeuyvpi2qeWvErvK5howG7c6y5xn09lf7KhcvNWhTP+PPE3q4VPMvLVOxYhg4AyuNWtMC8hIpbJI45+sUAi7D/eJwv2mAmC+3Ve/7I42TskCmwb2Wcp66LtNdzB/fV47uvyeTtdNw3R2DxsT/tzJJ2j+aB1SZH4qDQDuhvBLAa0xz2F8BOgP0nUcWL47ztesbKH12LtyYSSzhKYhkUSG9pqnhDYodmppPImqOSju9eXWnqxz1iSc5LbPM8QSTEsLkWbXE/iZXe0IAvvdOk/0/PXWrzYdJkuvTM8myS3yQ2KvFYVGnxwVjqEtuKfdePvL8Z58uFcf7Itnhy7+54q3bed+o1VrPlp0olsQJoKdL3nYnEHo7EfurQTGKLv5ZBSxR3aNK8kTqaVsqfxGrHKovEmpoWaZNjec+liIeFXzuwvM6S8nAvrbGauHfSADKIBT4c2hFvxmLZn93IiTaWtKURbx4QxsB0Vmb8peprjFwJU+bOZTUDbH/K2L4xCst/M90K8HcxGaLETS+uR7VWo+BZnKq48FNRo0ep4vxjHK5ExV6NsVezQTzuDLOVRvbnA+pqOniFZdBpnUm58lxM4TuMYwJC0vBg9dZoQRm6pOnMuvD7vpkxs4ekXZNehyvSnGWJCzPvvp26rFUh+Ey5U782Du9OgCV2N2OPmX4pe+HUrsV1niaF7ow6259Cl4MCm83Ye3DnbEKu0Ck1psPA5YynZZDJ5+yBvfFGdQNLfPM2QCDvX08lLzD3EyR0MRk9ETfctHLiFgHm7cTXGaSXxrj/aMZU4Og0V1OHb2d+PJtPd2CP7U6zrXcb4p00ME9S5WGKtDRqq1lZ7nT0DhWv0krK1ZnQUtIAstem12dfNNgUWPG0jY5Aktq0Klbue9H25Lk3fOCraHc6HB+7cvzxGtyPaL2XV1YH008dpQGrUZAGZhgtp5AObNx0E+OpRZr8YOTqnduZwN9p8znPXOxn9y9HbexqDS76VsCeD1DmydIAlFP8YYHFG0v8I4yl8OwfR8k337naph2aQD86tTeqOAYFGQf+u4BNucbm9yK8AZafVizlksaHAbbylAcPl6nLexENZx5fnQOQQCWh7h+GAPtSVsi0Q+sIx3dsX782ijSr83CAtdqDUodYhFtLLIY14JUAeznAmqB79vf0wb3DscVdGyrs+r14pjJgtQLz/tWMHxYbBMjHytCzkfLy+CToXcShX+OjfCzBPT4PbFZQbo95mp6cjvvw+BywtIsy5UEj7Ym0TKl3kx4iHmBvNPXd05jDzgPbQBF5pALIo+CtgAVEkRWgqdTjbR5YrVdDV0vXOnTloCOvB1juT560lPuZgxljJ4Nkm1+OTlxjI8Np2qsxVA58TcKZwVFQwMr0ZIwWqrLqejOgqhyG0W2qedqBk1HNE3uMud9UApA6nn/i0i77MuAZPUkjh4UlOuoPuR7MuL2sd45xOE0MAb2RsoKUTmwBYz15FQGxL9N1UF5Oh7pak+VEMlXZnzyLX/bBiUyryniUz+3Ut2CT8xRY7BkCLCEi7+VlLbpInCmw+OUvWJ5oF/FvxBYoUl8LKfwBaOGfnjrW2qIxEICvRPrKS6JJdiVDc7Ki1RgstWQnjLeKJLVM8iwfTFgZco84tDOrTQ16r9+fxqHikTi8TN+2xjvpYO1lflQSoL8ax7p5mmfcqJg1SpgomyN9KWZ8lZkouZ/xDXxa4s24GC3byeiR5PdoOmHPUYrMHzMjUH9RpP4Oh8XYWN5/KLaDzlCsyvfZOBtoG7whNguLGslnHlid/iNxbxZxS5rrVnrXeWCPpFwbGohHW3wJT/PLeLxVG53yn506XossLZDXZQrsbiC9T2B5iajXIuMLrRAsGun188B+K8CKU5WrtK7G0V+P/1XlkJw1BnO/OpT+z3rfDK3YnTaAvT4DVkd5LOPwg4C9OAU2Q9PRSJu6kA3W6gcB1uYEpC6MqwcBy417Op417UMlmxGcz0LCrJW757ADm1YAbBVA+oyXU2B/GomVL2rAhpnq5eZx1nkRxkhs25VREdqb2Q9g/9YWwJLYog8K7Jk5YN/aQmLfC1il0/Q/D2Bt2Xk0wLYaPwywVHE1Duc0C5fPWINTRR3Y3i9IA1WsA+g6Qq0GUcWleqTpKyQz2fF+lbHQuIpFG2D5S1EB+505VVxMuRrHPhNgOUJ6Go70vl2kMZJANuXSZE2z0nXOSX1XxW9EYhWqD5HYU3H/dS5a1m0ey+kvnbp8N6s7FycWbVPFsWDl38pIxs9kqsbfXvpmJQZM9VH5zKtizpZ5iT03VcVJtDv52ifW7IHkMQO2q+JrweFcJBaPjcKMJcgNVfwPTxxtDgovjZ28TsDFkN5oUxnjqVdkPQ6LncOBeDhaxfNjlcZqTQM7aUiXih5LDyviBDDRR3k9XE4Z3VHQY5j28E/DnWo1jlxM45RzXZqn9y01A6pA0AkZD+Ijzn32wdh3WsN+LHycycYyYxKGTbHesD7rMc/2dr3VrOQ8jHSMIz3WMhL6aubcbSzPvbyPRd1z2uARWeWyK0N+RYahanDBfXmwOAtoaU9+7CJxan9XC0uANe7L+at8jblsk1Zqfq7k3avppPVeO1jaq8WYhb9/4pHsoEgvSGbmm2+m4ia5qFyKtQigF3KqAw0j/C0vZ6MWF6KdiVpC+Cfj4D6ZJbLUr5EpBY+NnRLIysyFyUIzS5uWqKpbTnsrFl7tgZKNfVVlFeKVp8miBfK+jVMBbpbH+vBrjxwYPpZtKtAv197rqZ/4VPfrmco8H+NI5YWlBsMT2aJCopAwjpHrKavokXR0GqdCxLE9yLXIbghaBvldi3RdH7dQKANIlhCLCMOmHRRJ9HaMPJ3QO2nsAlV/98ga+CtxORYph/OELwBvM2DzcDMMPAhYC+0G8gZsCn05a5FTYFXoU/PARvRZ1nnVKgpYA3/Rg4DVzKzIDWDzTOXoDEilAGuHZVWctH9mBJaxoYGa/3UEVp5vREvYSjud7gBWR0bynQIr76ORaM6RzcDOnAvS/b8AdvNC+73h0urd4Sd8ySkPL4SIvxyw+PwbCyy/d0nswwALRPT4XxNgLwdYa+el8vXCTcB+Zv/yevlXG9KJQbLcS7Q9PaD3X9Vm3nNIxymQe43BQUGFi9/TZ6BPrzZNqkIZUyS8JJaj3QYx40JR8VDPvDGtAAGJx8dr7rrOCOtB6ak9A/nYoN3G9UIoYRadDScUrWBGDDuiUZiJdst7A0onufX7nq9QGqin7nE4E6rcHtLzqHvXqcQyftTF5nTksj0u2wMZq4tupmLfyXBGcxUvq2HBQoA2Q+pntyjOWn3TPLUq1yKkWqt5UQbcwseWljZqYdzZQ22O4twSzP1sRB7Di5FpNGMq8KuZ5LmrUE3oOxkfrsY4ei+SJzddjVMa88fZbrMyGevm0y6lvCejrqlc5Nc0qhYOWuAY7l49jKVHYxlPaSVjIcMMKXdfJqrUoMaU9fWAwJNW5UzT1v08sIYhTpsiwlFLocKuxg33lQuXBiNLCUNzolSCXC0KlBEruPNu5arI0KTjdt4WPj4Cqx8/DLCVzf2uBvGdk1UTxoLO0paTkpD0/byAJaEd6s0cF7C8T7Pm7LtIapem3m+81UnFl0+dBJhK8eac3y2x88DSXst97bMl3QB2VCaVH5ArSBtOgdUx2DozYPs+KZ2y6Zj7Aasi04RV4IOu88Da6U6VyE+vvxijhbN6StVThYm3SWLDxYvZM3Q/id2Txj+bKVEpVvmtPITEPghYklEajIFSJwHuJ7G2D9W0g6Sb/kzXUkksp3+RqcuXz0diC8V6kWt1KMBOrWIawNx2ik9zKc4DKy8NqkFsEZVARRZzxiaadEsSB3ucGFMyp1wf1ZlwI7DZEHLhaLA8iGRNCv4qa6m3RlUrN7sWNECRsX72VKGzq25iIb3IeHUqqz+2yra65AUr2tpqdVddbZcyRvUtbeN95NWz4aDYEGzMThtvEOCo5kri7jx7YAxw2Rve1bmp8zxbRAEC8l4b2EzvvrLGV3PlJkC6c7dXMxzdTIwe/5FMl57NPunqC9IyGOt5QxW3FF7WTa6a3sYzPXYrkplVFhNuDdAyDxeMqdZAYyIuSnNSWIvjNNqZOLQRteE4w/9862LznHgPwpPZSspEU1GlW0HZ/R58iMN3+sK4CT2P6f3rwycy7Xo6467GVs47MdhsVJvWpkNSzTlrWHkU4Qm5sjzZDNVvpadKZ3GyYT5zY2NdkTRti84YYNx/K46Pot1pO2vYpQWktOt/KRYXUM3/n4+N8efZtoNwezLr3b+cOXrxUeGu6F3A9uAOMMkpY6rCp1cMzAOronzDrNyq2ryv+PEA+9gGsFkNSUf4kwBbW1BJ0okAy64GgorYwgrYynPKRwM2ebyYypeCN48F7NnJzn+eqdpaOk3/sPdqZJyzx7f42ApYTg8nKIqcrtsEbDTTbMN4HAsB8Un7tQIwkpLqrYV2oS/kRMJXJ8Bm58vwy/v3bRJEaYsasFMprReuH0RiVZTKmwJLYtsabjhWFi+S86GIJF2LxP6PUWKFkVMHqACrUiWx5eoTZ0pbAUstffwhgO1NOctNo866ZOev3gpn8fdjlh04v11ix+dcXoh/+X7AljOl8iWdHdgeQr+wS+4H7IcC7KfngJ3WZeGTy0tZtpsGVeZdUqjhbvYUG5uvpgIYKFWs8hgvP6/YnNPCVJ1qcbLMGaDmw02YzW3/5+KVNicWX3mmIW3uKyDkMNR0XbiH9t/3AtbeXWdVCY/OsSGxmAjZRGJK059aUCtjs6ruEqQM8Sw0MNSmaeo8cc8hh86uX2+7Lmg8GmQ5nWFqwfKrOwVYtDdteDZbg6pcwLIvqk2V9mK8dd8ddzrK15j9bGyIKR9TAV347UMH24n2aQQFqoiKX82c0/zo3dB3pm2LPBjfKRAqD2qEVVhp+DXlUe9VIK9nlDFkKo1e2VtENY3aKUuJDLDKYZbUnfjU+FQVd8/T/hxp3JfOZJ9FHSbuvmLlX4z35rWcpitW5P6xg8upT98gLk23D/pqj/fWhO28KNJp2sL6GCDONy5d2Wgzzwyh8j+LJgwIrsr27rmD+2dtksALAfItqze5V20bCYAtjZRraQ/nZ4t3odcz06AZhS38nQDLdO4JvJ6RVZcCZRY6u8Oced6hNMQUWB6SJm0jKpfs9JsAO8uh32F+etoOY06fNe9T7smUjlHzy/n04m8NbF8E6MDODhPrcsq0VebVrExV66jPcwG2WbC5l6/pTS1e4wOw9emGvG7tdjUGWbWf69dHYHUMeQJ26pBI0AaJrw0/mR0ieGqU6/wiwGZfMb7uNP4riXxuBFjeJ+X+TIDVwzuw3frs81jS1ov9eQH7wxhP1cC1CPBLsRwL2EvRHL2XbwaWl6dAeBhgTdVKgSvPPLTKdf1agLV3qsg8diqxFe4qPmA/tQWwVqJoLXHeD7DyHVVxT6wnw8IVlcTas4QU0N5ohRAV4Uihsy30fhFL2rys6OIWEttL6DH0VDsjyyr07v1KLPfhi+M8T66mW7+Sxjqb/Uj8y/KmMo2z6qdMEttU8YzV4eNR3bONZtlk3vYRdfUm37Y9N+OstkCuK8mzZjee7W+mwquzmDnYJF6kfubDSHygfzTTnbHZW7i1Y2do8WkgNLwZ9sT355ipNewxm5aGEUdi0cJzzXjqkTGwP9JnE7XXJvnOx9YiujBjIYOqmD6SSjqayIHQkE4c67tTq/iN7PTjHzYeIbv0poeyhBWo7jH7foCVhhFkNjkWIWgsr4Oia5KM6aFlOyWutXXSnsrvU5mK7YvNgPBhN8SGesszQ8nCx5SmZQrXMYJDIwvxlwLSD6/dbG0m7nLyf2yy0N4EKOVMQcJWnVZU2odycsAHSHoHioMjPmsCU6T+r2QN11EZ2GzMYyWmMqjVcl0BdnqiHVNWTMwnTURIxbFMSzgPWKyaVT7mreVIz2M7GWesLmB7HlMZF2tGHwTYSl2N48ppUYsA+DoczXJo3LLqPT+yDXGVBv8WEsqPK9wYa5Ode3++0cHPXWnqmleNaLyTWbPu7dE7rHVgp+1KGCwSKKfIORzz2mkHmeaL99MB9ukMK2VA6nAXJrs/YPVSTgLYMP5TA6sQB6H/fwK2GkvDUM+1CKBxDBk/C2D7kZhp01epHXz7qmk/xM64H7BiOQRta+wU2JZ4/PlAwH5ismxnikJiGT+IeNvra+MYUjA1XLvnSaATYA4Yt8NNeRbHmDxVxc6yTlUxid0zWf2R97SZ3C/FKi71LE/GSOutHkaappkEt7feAdZGcvdqYMvroV3RLDnLo929axI7Jnbh7pxJ7ELe5/j/KLG4tIAxldgk2UTKsn3IXmhlUskOPvtOBR2lDKrYkU8kPmDt1JivQ4uQH/mcShs/tSGxXRV3ie2xYOVjKvartTXo38p0x8AsU3Mgc6FyxivUmDp1xgMZ2MWESTTmxUWuJ7JNklFVdOHWrai00UGRQEcxa5eifOTvNLa8kA7jo1d9A35Xg33RvL+XxnBgf3JN4ql+xkTx5Trl3TNHiiMayDN1aSpSaYQfCB/mjEpqacb6u9fRfhiAXr+Z8TJptyIt8/WL19oX3JJNy8NnGIztKE087EmntSesyB4v56emfNS7urJhNnBIJo7lXEp9kTzNSh7LkU+fXTIjWPj8OI8VgXeIo9whJBXTw+Z9xVQb4A3uvZmlnJE0j6YABsRW0x3MHwbsuPlbQ1jFOJFejjlEMn1VxqqJEH9tbpzKIWn4bGmL2vaJr6k6qzjl+FAuH29pG8/eNc0xqcje8NZ3O3TAzT/FE18n+n4s3teyJaU6YYI3EelybpdUF7B8xbSaPPxp0+Nx4hcBtjp+hW11Vacin+Dz1QDEsrFm7PMHDsOZ3m2ax5JGwFJ7GNTH5ld3Cli9ZCvS9Kc/ALA2yTWnRtLTHNZfHwZYUgQXRtJUnRWwtTKF3Z8VsA5dVydMtptIu3353OVmxFR/mS4C/DTATgti1PkwmPaGlo0Ntv0eDbDU8gcCtn0yKBwW49MCSexjGT+4Gev9hck8VsVMkQ7G94t0EI1EYklBt7bvtSW4KbDtw1pEQJr8+daCT/PwTiVZmzeaVnmHyPpsi05Pw3Zw/KSIJLbzscVoXvAF12RHXhbN69uKJbGvZpgor5i8SEiRu/8Vib2SOaUhyisHwxzn9M7znmgzn/Yr4v6culyFiztPEzbTcXwE7D4S+3ePHFz3iTkZPYzEcmpTHRjUoPMkiIuRpJejw9rknXwvsZgFeWuYseKGvZO7d7eGkMYOY9tgy2iRp728UymRxocoi6QbcW9BJEeapW1Z4B75FHvbgje94Yq/FjD+mL4Zz/u7hbbprqZMfYy9nv2+q8mnZ+pSmqby5QGj2Yqoc58R6PXP5vmk8VGWItPGqX0gZ5I4HccNTzNvu2Ezy6OcLZ2N8BtNmaVQR2eaxP7+0SPV3g8EVkTqTIOO+SXk3eRY5dQq7t+g6BKMEacH6nysPPXdY5kiTLddV8PJXVkanPFTZMXIEQeVkIfzQJ87fiido3OWeuc4594c4+gHmQB17c7acG31RmJ32BgsdkxO5eO5w/EVZ6e/zgCw//ba2/mU70ozqHQcu+/b0YqxHKXtjzQCArmeNt0Zx2W80RQ2iLtHBMg8tMjGhB9l6KmQSlNfUBXPDkvLob12DD/+51nnEEe6GocX3i+w3bnQHRTFqEyLZDy/0M6pzm1Wm9l8qoDLTOMjTB6Lk8MUYSsSWsBK4hmwPgICWH8+lfPrRw9uAvbE0lIHNomUvQLYNdtLOrA+7nUhf1NgPxFgHeEoYL8YYF/Iwnl9C+uVbJA/dyufAxhZdeGpKmA9n+Sw2QB2vQ0b04X2mn0kaiMeMMCWjKtjW/cdNalIdf5nLLa1lQ+JvBctfOHo4da8qsp1yHgyD1UI+ZhaxSL+rIBl6FQXdtTqeNTIg4B1SAmpXAe2S6wOMg8s19uHAuwjcxJ7dQKsPVJ2VFQvV795YP8IsPEamQLRIoB9+2Z8uKPexwt7Ygpsc9g0YHvOPHnAlj8CrBWhIvPYBwHrUBuBeWhg/0EOZYlMWIxpLC0WF5YoXOrAuZFOCQvDABBSjI4vNy7GpFKRAs1b22dqkkg6zm0rLUg5VF77omoL6T8kpEiaR3Pc0TDQc+j+6HOZH+uAgKXuf/Po4bYOLB2DZv+upairPs2Q7u56vntxh3+1838+Rt1LWY/doOTzqzkWcoxlmULx9cevvx0LnbGUVAHTJ30vRlMUsNLOuOrcnYnxWHuRN/Ieb7SZPjEdP43Hz7cN47PYTYBSX/HVXz3ZNv2pl8nnvhWJv/Dvn3psve1MyJNPyf44PdKqh5eSPeh87FYZz4cBpL4B7N3NjMF14Go+rmdlT7ef4oMk7c8KEJWqsr6ydi6So2OQuRMxvn7v5LENYKV5Y21HjkDmLgnMzE/vuj18eHc3Qaw+WTf94mvnvG5luv7jMx9qRxx1TOP1l2PhvpL9Ru7x1XaDjPPrPDZbwmd6GUDe+5t+/VTn8DXYL71xoeUhDWfMbxw56LaRFaRvZD8TLVNku4w5tiBwOvW46ctskWArSO9FC/8uwJJAasbykw8+/nUF9nfngH1zC2DPbAC7MPxFPkbypdfOp/GAosOsD3/wAGAZMCxSACKAPv8QwP5xgC0bA0CfPfwLYJvmeBiJ/QWwvbP5XfgPZ89EFXclwuH9Uqyz+miF0MVYsyYqoujVjlpynpfWqJ47y7Krjo0IedE/oTObqjyMKjYm19BuVgnYAz5T1HjtDv4L91XFC9lkvS0fxO4qlNlxeufa8NjubrRQrX9+6drwX1+70Fgfsx3++UdOD0+1jdhdFdsW62votYfL6fyaX0tIYl/I+FifIdIevldc242o4u/Hqv7SG+ebVtRuvqv8G0cOSd6IKv6LqOJktUEwcaq9gsxPHTqrZ8bUyminVCKf5ytqxyjbdDwcMXpejUFyyQ66MeMz2VHIYV0ZYqIZVyMX9iGpXL2XMVXDW1PEOJiuz94PWPmYwJ/MQkK5AzXWJ/LtQedSdS/DhsPZ3I5tupNQxx1+6xjjqVfOdrQ/Wz0yfGv9cN5mSpQO+eTJp4ezJ57Jm6jS7TuHtbe+Ptz68Z/IcoN27jZlip2eMAp3+d7VYTFGF750hhcD0lu3LJr3RObrzqk2x/uYj+04piuaSIfgbPn65avhuw33bT5+YvS8Kdh+re/nf0cxlnayHJpvK8c71c2lbHbIcMoqVqzdne1TRqM3SxrtcDlGnTVoLbDw2XxLEQPhuY0d7b9nSUGImW63uX3ARbaWWKUHqAx8k6J9DmiMoG6sQltI5Il4VZqTW+uEHgxsPsGX5bNySBibnsvHnQ/kMwkqBlgrG99+53oMjj41813iz8Yg0XhoV2r/n9bODH+240xTIffu3Ro++vTvDB9/5nfT4Dm4HOE//tJ/H579wX/Mc5qPazLpvnpzaTh/J58LzL1W+Pzy1eHDi/mCeu5Z6l+7cHH4YYwhkohY5DxRAEaCz6a9yg0pH53wJ3O7ISu+NM1BkVUjOfiz4HcmG8i1u3jytGvx5ThHSigJ28fy0bPqDOK9nI7+TrBpgvqbB/c3jrBJYt/MioE1PcQf+8kAa7W/F9j35jpQpYeg21sAy1ds2a5XvZ+ue7/AOi1QwAKrS+xmYL+zBbClvhcD7H+5/djwlW2PtY9e3wHs2c8Pv3T274XrbGjfng9ovvzF4cnn/zCtmbqk9fD7jVvLw4W72fOcGrOk//bSleHRDWAXhr+8ePn+wCYPh8OmwL4TYKnzXkIizFEBCyR/29LRHguw2kA7N2Az77feWh3Xf2T1dJz+hQut6T+lav9/gbp8bgps5kmvRxJ8EgiR2OcK2Fb3fMAjOsH2i1ZgWPV9BR2iw6y3DYNv79t4VarHIoBlplLYvlI6P92p9K6WzfTWArYk9uBEYi14T4Gl/j93dOZS3Bmf8H++dXr404UTaajsh8qnAZ956ncC7BfCe6Q8wJ587Y+GZ1/4w857ytTwfxlgz4/AUsWfC7CnARvGOCm+sQWwPr1AcyB5PBNg8a4uJPZyA/Zm3swIWEVU7POR2K4n9bN7AZXEzoDlqZsC2yQ2nzbUJxH+Xsow4XP5JPb/AgAA///yKBLAAAAnoklEQVTtnWuPpMdVx6vn1j099/vs7M1re3cdhzh2IhMnzv0GiAAR4gW8ARKJr4BABBBfAAKfAQnxAiEhIXiBhYQcQ0gU4iT22iHxer33mdm533p6ppv/75zndFf3zOx61w5v4Kymu596qk6dqn+dU6dO1fNs6YXRkeZhs5lKKaXDZkq7zUaqNxopKW2ory89OzGSnhgeTLpleRZ362mxVksHut+jlN3DRto8qKcGGQqq9vWm/lJPXKY+/ewtlaw8iVsHh2lbf0HU3d8LNyfyzlXK4uHXPT2ldHlkOI3191oCOVf3D9KPt7fToeqnauo8W62kHpWFepr19Nb8V9Kd059JJQl3sF9PP//8B9LHPvrB1NvbTI1SX1r59j+lu3/3l8rtraPk9cNK2mm47A3V8+Xh9fR4eV/tTalPvL+9vJbe3Nyy39RDyeXafjosOoDqp8rl1n14btQP0s3dvVb7kLiuLjYSA/py6+DAeJEGz5nyQJqp9KeG+JbU/rVaPd3Z2zce8OzrLaWh3j5galFd2IElVHp2eKi5T2Fd9OlvUChUenosw7A68rmJ0fTESNUq6xFY17Z20rXtXWuoeKd1Cb2mTmNQQHxtSsh60eGknR+qpKmBAet0Gn5PHbFRbwMrudOwBlFAiyzV/h4bDJQn/fHhaqoKfARliFDH25KjUTSEevkdDW02amn643+cZj/6e6nZOEj79Wb64ueH0mc+PShg4ZrSd//xpfTXf/LN1mAgra4/7w39bpbSV0dX06Wy2qf0Xgn68uJqurKx3QLO2rt/qDJFBygfmMUVbdnRIF4EFF0gH8BuZgO7T+kjff1qp5OqFQalVJagzrcpRWhoANVpvtGG2n9nr33NgJ4v90sZKaM+ek7AHghYhAlgBwzYRhru73Ng1alkpjCgXtdfXWVoKKOxG9gdgKUAf6Iz1XKaGJDgKo9gK/tHgWX0hbaRZ9iA9aYC/IWhqkZor3UOPBnhV7f3WsCSllPzsJbGX/iDNPHs19SZjVSrNdKXvzCSPvfZkaQxZPSf//Av6W//7JviGd2VEjqBpkIH6uFfE7AXM2C/dQywG7IeRVOtXP4BJ6zTogZz2KwDyZNbLBQE6xj34TWoxEEDFm4NtbcTWAb2suoNwsrNDPRp8BfAHqexAeyIKntuciQ9OTzUAhYteScDdl2at24a603jc1uV7vPDk9I5ATsuYKmcEbgm071eOyy6T6OLhnUBOyJrQX7oJGDfkhyhsXSKG2UronllT8B+I00+93WZs8O0L4F+4Quj6VMv9suMeZ7v/fO/pb/50z+XqQtdSakmPiH64TEaC7Cvd2nsg4DdOTzMtKtp1jCApYW0rxvYqhKr6gPvwoYUqBNYBvbS/YB9XnPsgJhoEBnRRipjlJfVA+cGB9Ps4IBVQOftS8h9dRTminz3BCom4ZB5mXL6Y44OW0/a6epgmpD2MzK5v6XBsG2m2sUGQDS66G/LQ3m/ezyw24fMW7XW3IbZWqgOtbW+qdG88Hn9vaAa1Zm6PHOxkhYeH5YpRnLN01deS4svvaRfyE6a5sNmr1sb/Wbofby6lU73H9pU06d+enlpJV1Z7zTFWK2c9tX+mBJIr+uipjSv1c3qrb1aq0ifprhJaZtL4MnkrxUdwPiuqb+whBD5mPPxb4KOaOwnx0ebzH9NVd7ARMjEHogpBIMBzWv9heYg7KnBcpoX0AjDSMMp+Okmc27AYEU7hDyjMuNyBkIv9jQwasWkTCn4z1cHTENN88TrlkDD3EPUk5tiUuGxJEcO+NHUqUolfWp2XtOD18K8vKi5b4M5QeV7lOfmfiVdr5dVWm1s9qRL1Vr6xHBNV21aOuhVh9FycpXS6YFaGunVQJb2MvV8a0kau97pPG0K2PYwlI+hgRsDmyaU1YcjhZkolRryMRrp1fXNog71sdq/oD7yWi053ZbpvinwY7BzL6YM5C2rDKY66FhgJwUsJg1gdzNg6SK0dqDwcMkDqDOVAQODim7t7KW3to4CGxXyfVpCT5jz5Kl70vpaARodggc9Z4PFm0an3JWz8SBg8dAD2MlyJX1ydi71tICVtyqQNg4DaPFslNMteb0MHmzOhb699PzglnVogHu33qdB1wb2bHkvjQpY9A2vGGBfE7Ctwa4mObDeNj65bjuTzcTUhlMDYR1W9xvp+wWwpB0H7B0By18ONnmRkzSsbKXn/4E1je0EVlagb/ehgAXMl/8XgUVru4EF3HcF7IsyxRP9/eTXKGvIxLVNMWN9QCOtv2DPaJmTtqJdqD5e7O1H0NhdaSxaC8GTEc26rR+bK2LqWNrXWrmYQkg+b16xax+5djRdLGtuzzX2xZnZTGNLaekw11jxbPSn26axmnPVpgt9O+kj5R0z9aGxSwd9cvxUjyVoPa08mGI0tleW5ZXl1fTGBqbYZUHEXc19MjItYikXptgsktqHlwsxJaCxPxCPIMwqU5zn8NQlrRxyjc35kwONxQMOwnpOy48JT7r0sdHhZrjItAYLGTLiQDFJ8wch7NmhwXRWQjiwSUudA80ZdTkIsUjQ/CdkyBt8clOM8Kzp7tVZMTqRhjbwTRk6cE6L85gvSWdtzTLWx6uDz0AkP58jA5X0oalTAinAL6V7hwpCNAqnBP51zWv76/KC4aPOKSkI01OMHk9KT42NpvHCG0WOv79+K72xtqkgC1KoLxj41st+TfI5BUboj2gv3jrODi0i16YGMVNLB0n2IKai01o5dJD4aXFX8MSTZj18YCsI8vUL1KHMFNNzTF3+T730/MhQM1DuYKwLgN0Rx5gPAf38UDmdk/YQFTKhtUYD3HyEsiC/H7A4BUtdDY1O4RveT2jtnDsHcT+XkfohgB0WsE9PntaVo9Yj0BYP+9NqY8C6p6nOG6wvp0r9no8eFYYnfy0+unhxdjzNK+qFM8nA+osrV9N/LK+bhpCXZVlFVsw6UAl9yvP0GP2BLvIvSaO3bXADK9IwiFlzF2PD5uqRQtuAt6wbrrEuCTyq0nCiafyGaupTsLAcAp0+GtIAzIm53YNNqvlBwOJM7ReeAF8Ae/Y9Aour3w1sCEhDcFIeVxgzBzbuH/edA4uWeWc0ZYo7gQVU/jKFO8LuhZkxAYszqQEm0L555Vr6zsqa/QaEIZmNsjSFOoARk/yUAdte/77ZBeyKgH1bU1YQ7SPYAg+AOg7YzgCFDI20niWi2wBkE4/CIQu+rG3RWvJ0AOsd4tmoEI3NgaWx5wqNJQzGkmJdzNDYCBTQWDQWcxX8WO6EVwxfNJb4aitDSKZvOo/RSAjxYYAdMo1dkESZxmpOXTtsa2xlfyWVDwqNtTqja11SPl+YHrd1O7IBwF+9+Y4Bix8ADaozWSWQ14BVjZfHhyRzG9gfy2vGV6GDKbWKxgpY2g4x+EYJoIvgQ5z8lOLLcZ80gK3oj99QXVq1XSgY+RzYKEEOxZsVhNlXv1uE78PDVS3JnQHzOzHbQVXkgqujlbHgZ78fY44drtgILukea1gcARwIhzqlaS226QBEh8+oeGJWgghweMN9xO6qgitbW2ZGGDw06FdPzaQJxT4heKzVMDM+j3PNnEY+IxLUWXULinoSco/2D6RBLbOQk+jSRm0nre/htHh70Ta0JSdMdkRrAI7BhblFChyUa2rvHdaX5BPxOTuIe9nm884OcyzAuuwV9edw1n7EbW0C6Ldup3FCigULvm7s7mst7+Zb4iuAMWBLTcwNbaPPcLCQKephDpZfZlT6ULXamsbxtIgAYSaOI9a5j8lEnlUkiY5l1Hx/dTN9696atFSdXgh2Xs4EnnZxaaMPsxYJiBL36NcNafgr99YlrDRdFTMIvn7+lLw8gVJkvK3OxCGB6Bg0hE0KrAYA4LDREdyD6IwzkmNeThhp5LNFP5qjsqSVJVPuWVKOwAgRHXJgdT49MyErNWidSZu/Izl/oo2Q8IoRb2QA1XCC760dBVdUljQknlRfMLVwD8L/wGwGIRtmNXiQ/vrWdvqR+nZAZv9QinBOFuwDI0OFL0OQ4zBdy8x7QzUBNnMsfVr6oICNCgAKYIcL+x/p8Y0XioBnBCxmCpX/oTzGf9cctKUhqEsTDi9xXK63d7qbFUwZHdpNCMFORwBLR9DI3zFgNThUBgHRkuOAhR9cARbPMxrDqCaUOSutJw1Z7+7tWUClJG1jMCBTN7B3VQ8dBE/a+3GZ5tNqD2DQ5u+tbKSfCtjQWPKNGrD8YtApapYBy6IOYB/TDlfIBuhMV0EMmBxYOF1RHa+vbUmbdaX8DNLLGbArXcASf0NueEOmsVFjv0zb2AOAvaCRc65aVcMwIQJ2dSO9kgGLrp/RCB830+ONrWo+IbpyX2CXV0wwxKpqUPz2+YU006Gxew8N7IKAnVN72Abr0cdivZZuaCnCkgiH6ziN7Qb2BWksyzu014BVe3+y2amx3cDelBklLEvrac/4scC2l3toPwH/sGN8X9ncTldWt1IPHS3Azmj6awOreVtLTBwynxCwDOwYsTwtgP2V2SnbaFf9JgRa5nD4iF1VvHVX+5kQ61kcoVPyGmkk/5a0CXBTc0oRkrWyBDHYGQpiDajslp80NgncLXfNgO9dOVOS32TAMTutIEg5m8eqmmNwqiBED1PMNcndGovmzCrowa5S5NmRVu9mmrIvjcQKwC8IRzBCmfAY0wAdsKkJWUtpRR3KXmgMUto12mVGiQ27VM4VjbSNliIVWVfUb1DRJLWHni8SJNC2zC/yIhvpoxocs+U+TQlkAgsOROSSs7kgjVUJ8pe+dna+CcqIwuIbl5pvbrLDwNy2ovUR13Q8m7kz+kNY0lB9nJq8d6Y0r7HeC8qrJ4251M2d34FTPqtjjtfkGMTaGGv0pE5QhHtPqXcDLA4H239ByOvTg5/+AKAlvPOMbNQXHUb+DXm04bSRDTMOmEH8ZBBHGm1ZULABa+CdUlI/dp4YiUEYPKwXsk5iNTIkq1WNZZUqiUhTZOOarT4IGRB5R1tYKAnXpd89M98kakSDARjHIQf2ro7B3NMoDpolpCgtwHxQSV1CUyYqJN90F7BRNr4BNnZ3Ii3/RlO2CaQXiXQRU8CjADuaAZvXQePZhWHbMSeO7dB+iDy2NlS/8Ps4In1EIPgw9zKntFMVSyLuYxlwLoMIpx6JRMVNfVM7KxOC/PzmryyTHGtfXZrj2u0fsMfrEUBJkwOLhqD+jwpsNB6NZbSFuUKQnB4VWJYM0dDQ2NDA0ALuQwwONPb9Bjb4ey0O5Oj7DCxDgGNA7wnY31qYaZ15QmhA9dlEI81M8b6ZxWjIlDR2RhpLh2J+9pTHTgNoUARhqsNMRFr+TYgSIGIgcA+vNQgJAB+O/HHnzGBF61Z010ELjzaKMd8sadoIKfie0Bybz/WUxaxDfBGCW5YnTUdG7b4J4lxI25VFMg3mQsmsHPAvkDGor9Rp7tlb9hCj80WLsEBBNgg1V+dkq4YsgfgFfRySuaPXPhLAdTnzYyi6J1OM/2KlOPNEZATXkaDCec0P0+oQBKdBqzJVW5lQxE8pCNHNzL+3lCdOUJB2ViDgdESnkzcnuiQbB9bZ1a6jMURezNUnr/5WNB3sazA4yUOVHATBQxbSw3TzmzJD8sIqxVzPNeYsHDKsCWevbu4wxwZfgiN+JAfTSh9g7nT8yvixhHpSS45T8raJJUOE+l7WyUVkC3OMlcAHgfiqKc8Ok19BKMOi1ssQqazbnxkf9sy6pswNxZbf1l8RoLJNEI/EOR/iAljFnLgTtZSeGao2bQ4VsyFlviC3elbhLYiRhpcY53MsMftA9GV1zm2NPuZnrvk7B7AyT4AcFenniYQWdZ95yg+z0cHMSR44cJ6Y4phzg3F0LNcOika1ebR+zQ4RwEHUyam/G9kin3R4umPowGL+0Sbawbr2qdEhC9CEw4n1eenuPfOuo/78vBb9QaQNjzWI0x93tSSCGFKcrvjI5Kj1lyWq0FUdXrharJfJw0BnkAUX2l/t0lgrW3y0gGWUVNWAxwXszEMCe1cdRIySRrQ09mcAbB6gwBwS/jyJflbAXi6ADY8dYP/1fQCWY76taeL9APYjXab4nOaHKc2REKYYzxGHKogOMwdPlWtnzNZ0Kzp1SJoBq49T2vYa1iDB3PlIJy5yMqFDdq6Y0SVicIxLBtazWDx4sCxhpHsO8rA2bJsi0sN066cRQREpgxE82JWJMlS1oSnENYe7TgTkvSVeL8F6TDg5OBT+hICd1/kqTDE88O5f0QG32C6Dy4DyIw9/ENqd9yG7Zat111jahyZeHh1u5QdgDupxiIGlvKqVRdPUU2gssnAWjfa0SIzwSuDH/dIvz0w0GXWIQpOw3Vl2O3GOwwDxuSTtZGOdE+qAxdJmQeEuTAMMIZyumIO4vi0hOcmn5GMJQGbs5L+bP6LMH9QTCJgf/jGYNhQoQUuoAzm3xeymQnfMe/zDXE53BeM3NY3YMiMrlwtQFmij2rAIon1v6ATiusrhzMF7RgEZBin18kdfxPzp5TwgH21HlqvbO1q7toH1spFDA0y8JxRVCyJqtJrFjsk5JIcMH+FQpzlUvcXeF4Y4dOil2O0hzhCErGvylXDMoNJX56btwLhD59lCEFwTPFGPpKhDlcn3UnViQsBSyWlp+AXFj8sShEZBnKPNoyLXNfKItIRQXot/IgaaNasO9MGhw22q99mpUT8hoDrhynFT2kEdgI1H+5b4MsD4h5c4Lx6AHsQaFYuTU8iILMyFHMnJ6VXFvnHUgli357Fzq82baVkkuskT+bn/psKBbHfmfRr3+a6oEBvrQXiyN+RDBMF+UtMMR1LpH65xaHmEJRSmpvl+N1sbs0GzrPbaZozyt4DV7w5CQIAF1BxYIlFLOmuE6aHGBQHLxsBABuy2gLUlQsERB+V+wGL451pa3wbW18LesC0BK9lVJc30s8ndwM5lwNKpxwFrhfUBHxwjOiyIMjmw1ER4NAc28p70HcCybDqJBqUhnNII6gaW9IkMWMBlAJ7VigW2yPk+AOvPkFAZGhvAmsYqbUEx3QsK+mMKg94NsA2kKwjT1G2Kn9UTCCyBHFYBqcESDgtF0cR4xIPOhMe8Bkew5fv+wDKvA6z7E4hCmR9IY1eL5R0dSrz5vQIL31x/HVgfUNxj6rppB/N0UdCkrMmkHFCzNwKT+AFx+hguALt3P439ysxUk5BXN8GAQBlrstgkZyJf1YY3a1scCYTiIS7cbmClDGn8tWFmMOzbw1thipnDeYKOfBBOlj/i4I4CzsczOpVAqA6C75q2qQ6aaqYuKMcBseuaY+HJKEaOMxpk8A0iYL9pjYeD8qgBFeVTdVaOedRjulHCZbVDY0USHeul/RsHZrCYc9ul2r8YZG9p/YkHH5LgBFJvEMELBhT34Y1zlcesadOkBtQsO1NFIXjE0o0kllC5QwaE7F61TPGXpsabMeEWPOwLhsx9zFvs0UIIko8U+pATh7b/WNwnH2ZjSA3Bc4XPsuLNCBHAWhxUJp578KTvMbVsMkDU+4w0Njb8SWY7bU8Z4MiQYB6/pzV0DFrqe1JTQvuUYmisz5fMQfNaX5/SXwhCXBhnsA0da0o9+VB4m7TvVe2JLkqbMEgMIJ5DmlWo8qgqIDmc/CkG2/DWNfngSWzAmieeOF/xZABlCO7w0FXRfPtmB43NBKwUg3VJDujb2zWzmpRheZnvVDXEg2d5dvUNlR4W2D11UE1CIAYCciiN5zajIQA1ZcB6VAhhAZZdIzqGcQuwMW/rUg1zYAEesQD2wwI2TCA82sD6YMDc23Op3BQ9DLC2VFEZgCVIkROeaA7sDwQs4Esk63D2Zh8FWGIDhaiKJrEGb689jge2XxGuivpMA1l108/XDVh6GGA7tyAZuEuyppy3hh4eWJkA1m4BLBpLVKgbWDbXc41lJAEsRIA7n5NJR2PjPt7xh7TcAViIYnc1YlmWQTQUYHnONsrAkwe0H6SxrEHhSPdwcoOlW045sJoRTGOXdrX80azAwMPcPwhYlnc1ZWYQ080cNeWxGMpD3cCyKc92YXHb2rSgpdu8NNbKSA5i2vcHVuBrbRyhyw5gaSzCxK4M60t2Lgge+IKcrT0dBo9RoQJsxAMszpSVVXnmxnzu4hy9PS+rexAP9aK1QYDDuadoGHDykJI9+Fv0BqY3TDVyMpDWtW5jDuQaLecYDKAH+ZloulYDUcyJLXMmWNUb4Y3GMZgoM6bAMIexIXhd03xJPRRBPgYbMduQlXzMmUGYYgZ7hFjJh4+CExZlGLjj2jQP4iFxrF7cZ6qZUh9OazC4xurwu6zeTT2rFH1szmeMFDGirG/bOZcWsFzSHBoee4moN247HQCRBxNKzBVthHhNAV4kc127eXar9ZE/+EwijkQE47lmrCIUnQ8Rk43BwjU1sZ7s7lDuBfnDxOJU8KCD0eJwOACTzrstcxYeOacnJ9XBbTeO5U1/K54cvOMbHqzJWe7F4EC2fD+WvPmrGxCH+HMAi1wMal7FEETb/0tHbqL9lDE/RAOxaI7xXJaptT5WpUSicvMOL6ajsIRHgOXpOjodhj9LYCtFHQj0fxlYBgZz/YOA5SRHHHhgUD00sA+rsRvS2DVpbJx5AqhuwuGYZA+3sJNHNFZqxpwZI/ZQy5q70oqIXtH40Nhu3nHNThQnJYPQDBrv55VkTcTkOI2NuHiUu5/GIscNHXE9qrG+dAkeaGxMGygIjhKBDqwJgzjXWO5zYvEIsNI+22gng2hLPOMJdrT2gcD++vx0k6A0/6g5ugZ+/N5XpeG0kMa8G3Zel3YO2PZJwwaS2EVndPSSk3o4I8ZXHxb31TWdhfPAo/j8C/I6zPBY0oB+4oVT/jgiPT9uQ3s4ZMb8xj0clhvae72uN81wEIjWTerpgXNyUlwKfYkGNceGA8Y1bYs3TDD9EPNmvg9JkN9eDMIPEd3A0xERTKFuzOOwBhm/yUa8eSyLFbM+92WXbop8Qee/7VMjflNOK2+OKarRFMO2XRZc0Q3mfw7AWz1/ePE839ZUBL6q45l4ijSduY6YJwFnCKYIva58OFNM7KxzH9PGs8/Lns8yZx+ciZ1Q3BONVb16InzbzuY2BSjDBL90kccmVRwOjGieBJiyAL2C8cL7dT1tgBNzEsGbuSzmS2TjCTYe+cQSsM1HgP81PVcDMc1c0qb5J3RuOHqLslcF/CZnpJVHRWxflNgxro789nRJuzCn5VmHq0c+5ljaFXRbgROWI8ZDn7yTI3/jCz5LnIFiKDPPf2l+ygaA9aA+OLV5R9YhHFkGGJ4zMkH8ZlUQ1eK/ccCePoBH6Y8uFcCqBCclADaE6H52BybsQhDew+sDXLzXCwBLNMakotpOooMBCSER7DWA3dhR5zTksPWYh3tHwNJIWLAZ/hsLM2qwj0iA+aHWk/cDFm0+CVjkMmAF6o9UNwSw7K1+YnpSVy447XtLwPJ8KyAD1k+14c07pXAscdCeGhu2YzoMHIgyIwxau3JOfmAcYPkHCAd6a0zbs2ZVsZEtb3gk5pcWps27pg8owwH52/aIh3PufijLgyv7rXoJoEzlwH6jAJZOB1jeCmMLcjHvfoySxuXAmlY8BLD2JJw2cQNYNIAuYelyErA0EoPxXoAFN4Dn8cbjgA2zqqoMWDQWYur4yTHAcvQnTC3yPRqwbuApzztAADYeG6HuHFjyAOyWtNaHinve9mCb7jHEKDstPi2N/f2L56R4WoPqBpP4dR3+NlMsbmgKMc94bEDl9U4HPyMLKLCc1TxFcNq23JQfjYzKyQ8RHmPdxuBh/L2hk/TX1GEmkfKj/YxoNAKuaOxXT03rsLcvRUjjTS1rWoDTyG6iYb4T5dEu7pN2RjtPrAVDY38sYF+TpYDQ2It6zdHHpsdcRVQADX1Lx1EIXFAPsr4ts8q8yjVTxaWRQR1mr5jMSrI87OlGzdTLJjmx3OBBODX6lDI4mhEOJP+Y/I/Pz03Y4OM+aSz30Nh4lAR+uQ9BhInXMFEHhKzwwTGlvaXfPDVTvHJPwQexrMlshIdLBcxdURgGpPHIBD+Y5HG3VKe+uePE2hENCcKDY/1Lx5GLdRteMBfk4vS6LeolLPcx689PjhWmVSAojfmGzWvnwHcnodUcmBZeRvCZ1ZqUt9XAlCD6Na1hGVC+uFdMW/Pvk3LsvIWUUPRGZpfDZxCyETixg2q6YO+XfeMxrX+LaqxNxMZjjoUL55Xi9T/GR33BAe82qcbiki8GBc6h10ifsykgL7hYt5JHU6f2cbGZTvQnhw9dai+5oymEnSKo9Bm9gyICEJz8y5//pC5GQBz7pIgtnFUBgiErRz6JiKBtEEIQGIh4K2kxH/EbItzoB7E8tEcnLOlwF5YBQRkU+YPPcOY4ajcfeEHUySHsW+IRDeV7SiN4xHqMjuShLDkkWYCCQDxOXU7UE04c6dbfWQY7eKDAQcjCKoFNcywWhKz24LPaRApyUA8PU4dsKEt+LHZXA/INPVOLhYRgtaLpgBMR9DEayKlPBpD3Mg5Xv06UDnp+fWL13lGUjIeskbn02Ykx01h4Mh5iHaufJhgN4XxNEEDjASM0AhLgvy1g8aCDAD/OFkVa/s1zrRFFgg9r0DsCxZZAusbRyYGlLBqeb96TFgQPtCwPy9GeNrBuLbrXsXQ469iIosGPk/90UhC8g0ilbflZI0AAWGQOekMnKGLbjjLMexF5Ig95SYMoxaD8b01P0YOkEc27h8YWbEe0DGMODeLZYU6DhqQMtHcUFSOmYMB+TsCah6sSVIXJQHMpQIPZ5wwzQhqLZjOr+s1zLKvyZgkm2NNlEgKzxv08fqqsHaQtXgtLkojcAHZPAsGDPkVjOW6DHNynXosVF2ZGl0Yx/5AHYO+qI3D4IMoA7HChkXQQGovHCgbcH9ZGPkuNnJj7cmAxynCkDjqPI7q0j/IQgxuvP+ZY8jNPh/kmD4OYYy55maFsDYrsb6tMDqwtKyULNVFuRLJiXWLM8bAZodq4RimY23lpqQH7hakxC1AgAAyw0XHihwwE8yP+SB5enMlim4byR37m5DBN5PEwh0/iXHdTXQvyePKae3R6HIOJvKrWBKQW5LIAd9gqXbORYK+pK6wHzxCtaI7BEYToJAIU8UQCdbCMY5ckyB9fbINEerQrfrOeZGkRxEZCvwa71+LKwHKPAEgQzlLeH0x1+VEZcgaIwSi3ePDhUCF/wEp+vml+1IKDme/p0m78gZjbW7FimCEAi3FOAELISkwX0xvEATB776FGKsJz0o8N8aiQBtMRZlaj9VG4+OYEBp4mDg/lODFxUa/OjR0hGsmpi3ipCVht61FONhrUPusU3l3MGeiIEnVvAlAVpxzzTYA17UStanM+p24RCf9hMfiHBXtV7yZelLz8pnoGYLzegI5mjn1astNH7vrhnfLeSO8R+hCTikMFUR/t28Lj5FoJ7EwRxMn70Dfa2Y+1bAqaaFCKT06uy+0UZA46AiyL8QAW2QxY1KcgPMIxmQTmCerkYWkOmuOcBMV8iNDHkQGruSyEpqMAlhEK0fB8dwc2/kaU1jg354N5OAeWvci2xh7d3QFYHutot8aq6/ggBBnTCC36oYDlGeBoHcCGo0RBNPUpZBew0VwGP4BCALwCsIoPQOThtMNWoTykwY93YYVctBJni9Meofm0nwESclAu6uN3N5W+PD3RZF5BEGLCxCN5USaVAJY7C86OEYI3x18IjrYx70aFVIbjgGcZlI8sRhUnFgmUB/DM4bwEM+ZywnW4+8y5kGms5qEisqm7LgfHVHJgPbDQrhiNDSeODsaxYFDdj3BqaI2y2/ePBOxyMW/BmUHMtiW/+SPvZa1t47FSePOEe/QI/cQ5sWu7u3DltoVoid5BtJBphU2CnObkAXOUh/U2hBWMiKAlSEA1r5MkEDJBdmA8TrvBgpMOmGQ6k87gJVEc3rLM+qDTQ9OsYcozoAqiDgYDL/2gQ0kjD85BbCTAByF5tW3clzU38x6eJWVYkEc9lEGbwyogmx/uYq73mjHFbGuFxloZyRJPwXO9pZHBeeSQlbRuYimG0waRjxdIIy+/6R+CJgxkCDnJyVIkBhj5WIogHyQRLBgRZ5Upw7KOl3fn1G6J+CrTuNbgHEElP7aR+ZNTl8ZWibzOwWPpzoV8h2pfeAMnnismO2aGl4TE+Rw69o48L/5PgOh0GOZExR8YG5Jr3t6mQyCAZA4CCNx7gKYBxxE8eCgrQmx0DssFllqUR2M5LM3JPuQgf/dyB745ewDgoS4cG4eNHEdpWHXkTxR252B5xBwavKmfJwfiGlnyB58pT1pOyHpbKwmIe2wYsHEQPBhA8RAWv8nD0/exH0sK24s/p1h3WDFlKaYr7+MTgaXz0BKAjTUXZoX15pKAzRnCNAghniqADQ3D9ObAPujBZ3jkT9txTRQpX/sCELHS+wEbMvEND05jcqjuUYGl4zk2ylQUINBPPH4S19TTDaySOsifaG9rLOv4bmB55V60l8I5sAxugH1awNL+IPdDuoBFoJzIHxr7aMD6G1JpOBqbH315N8CyIM/NWwAbMqJ9cUoR2dEClia5FcjabMWY+wEWCnD9ypLsg4ewTtJY+J0EbJsDwJbN0+2uP/IcB+wtxeiRhTK0B1DjsUnS+D8AcJ6MZMJ4f9VRYD2Ig4Ur/aKcJ3ZXIDQS80ejScFbI8IRppj7xHQJ2LP1BAOIznQOfs1pQQLScR9TxZPh0emYYebxmB+9VOcnpojFfxDRHZYFNJtPNHaxxn/24B3BOVscrlwO5td8cLDJYZvkBVs4aUneQaxT+7oTsxxmwdTpUQ9zOk5ZtA0RCf255xy5Mgaqk7VmzLncwT/onnMZXMgfHNi/JRrl4moNL2AvqZ9DYwnMIAeH86DSxUq5uSepuKTjpgUIsV6IRwo5dMWcAtEfmFV7d6JKcE2EJWK85IFIZxAEAVB+3atYM3WF0JEv/65p3Rr3YTWnze2KPBLSkA7zd13zPYF5iNHOab8glgkE+XlFLRJZGWl1nEKgFFrB0s0l9pIcCIvljqd0frI+D1+BO9RjrzLK6mZtf9Kg9W7pfGIPy8jRn1aX6cearM+62hiJTGvks9aqmSwz49w1ctBbvEeZTQzaWhKQTUwjREMX5PSEc8CoQ1PyJwEIWcWLlhEE7zV/awwVYzYIJqjNRniahOFCcOLP4Vl6js5PhhnvbIjlOILS8HgaHT7IcHVnx+oJvjkX6j6jF3rOWcjQY8Wxjo18WKIZ7mcBGPrAtS1ytb8Bi6f+PLrjtQIs/y9C7nMUzW4X7PqFJg4XIUXyMp9e1gZ+tEPdrtOUe+KrNTcXIo7ChOXkmnKhrVyzjfqdlU177aBNJXMC1rbQdJOOO43XJ+eAsY9WdT/iAbD8lyyxcAZYnBIqQgS+OTFA44M4l4wjBkAQIBOmPGlUB7BtDg4snU5NtibVaL4mYN2kO992Dd5ogOWlV6zKsRgBbMhJR00XwDsHdXKXxtKeIMphyuOQHen0A+9wzIGN/Cd9I388jQ9/gH1SjpAvotSHqmhRXnIASx6AjQefu/kil55YTt8FWO22wf9/AMm4Nqszdx73AAAAAElFTkSuQmCC;flipH=1;imageBorder=default;" parent="1" vertex="1">
          <mxGeometry x="40" y="160" width="80" height="80" as="geometry" />
        </mxCell>
        <mxCell id="elf1hlTlJ4yZ5ydXjCup-2" value="" style="shape=image;verticalLabelPosition=bottom;labelBackgroundColor=default;verticalAlign=top;aspect=fixed;imageAspect=0;image=data:image/png,iVBORw0KGgoAAAANSUhEUgAAAHYAAAB2CAYAAAAdp2cRAAAMP2lDQ1BJQ0MgUHJvZmlsZQAASImVVwdYU8kWnluSkEBoAQSkhN4EASkBpITQAkgvgo2QBAglxoSgYkcXFVy7iIANXRVR7IDYETuLYO+LBQVlXSzYlTcpoOu+8r3zfXPvn3/O/OfMuXMzdwDQOMkRiXJRTQDyhPniuNBA+tiUVDqpGyAAA2RAABQOVyJixsREAmiD97/buxvQG9pVR5nWP/v/q2nx+BIuAEgMxOk8CTcP4oMA4FVckTgfAKKMt5iaL5Jh2ICOGCYI8SIZzlTgKhlOV+C9cp+EOBbELQCoqHE44kwA1NshTy/gZkIN9T6InYU8gRAADTrEfnl5k3kQp0FsC31EEMv0Gek/6GT+TTN9SJPDyRzCirnITSVIIBHlcqb/n+X435aXKx2MYQ2bWpY4LE42Z1i3WzmTI2RYDeJeYXpUNMTaEH8Q8OT+EKOULGlYosIfNeJKWLBmQA9iZx4nKAJiI4hDhLlRkUo+PUMQwoYYrhB0miCfnQCxPsSL+JLgeKXPJvHkOGUstD5DzGIq+fMcsTyuLNYDaU4iU6n/OovPVupj6oVZCckQUyC2LBAkRUGsDrGTJCc+QukzujCLFTXoI5bGyfK3hDiOLwwNVOhjBRnikDilf0meZHC+2KYsATtKiffnZyWEKeqDtXA58vzhXLB2vpCZOKjDl4yNHJwLjx8UrJg71s0XJsYrdT6I8gPjFGNxiig3RumPm/NzQ2W8OcRukoJ45Vg8KR8uSIU+niHKj0lQ5IkXZnPCYxT54MtBJGCBIEAHUtjSwWSQDQRtvQ298JeiJwRwgBhkAj5wVDKDI5LlPUJ4jQeF4E+I+EAyNC5Q3ssHBZD/OsQqro4gQ95bIB+RA55CnAciQC78LZWPEg5FSwJPICP4R3QObFyYby5ssv5/zw+y3xkmZCKVjHQwIl1j0JMYTAwihhFDiHa4Ie6H++CR8BoAmyvOwL0G5/Hdn/CU0EF4RLhO6CTcniQoEv+U5RjQCfVDlLVI/7EWuDXUdMcDcV+oDpVxPdwQOOJuMA4T94eR3SHLUuYtqwr9J+2/zeCHp6H0IzuTUfIwcgDZ9ueR6vbq7kMqslr/WB9FrulD9WYN9fwcn/VD9XnwHvGzJ7YIO4Cdw05hF7CjWAOgYyewRqwVOybDQ6vriXx1DUaLk+eTA3UE/4g3+GRllZQ41zr3OH9R9OXzp8n+owFrsmi6WJCZlU9nwh2BT2cLuU4j6K7Orm4AyPYXxd/Xm1j5voHotX7n5v8BgO+JgYGBI9+58BMA7POEr//h75wtA24dqgCcP8yVigsUHC67wB0LaMA3zQCYAAtgC+fjCjyADwgAwSAcRIMEkAImwuyz4DoXg6lgJpgHikEpWA7WgAqwEWwBO8BusB80gKPgFDgLLoF2cB3chaunC7wAfeAd+IwgCAmhIjTEADFFrBAHxBVhIH5IMBKJxCEpSBqSiQgRKTITmY+UIiuRCmQzUoPsQw4jp5ALSAdyG3mI9CCvkU8ohqqhOqgxao2ORBkoE41AE9AJaCY6BS1EF6BL0XK0Gt2F1qOn0EvodbQTfYH2YwBTxfQwM8wRY2AsLBpLxTIwMTYbK8HKsGqsDmuCz/kq1on1Yh9xIk7D6bgjXMFheCLOxafgs/EleAW+A6/HW/Cr+EO8D/9GoBKMCA4EbwKbMJaQSZhKKCaUEbYRDhHOwHepi/COSCTqEW2InvBdTCFmE2cQlxDXE/cQTxI7iI+J/SQSyYDkQPIlRZM4pHxSMWkdaRfpBOkKqYv0QUVVxVTFVSVEJVVFqFKkUqayU+W4yhWVZyqfyZpkK7I3OZrMI08nLyNvJTeRL5O7yJ8pWhQbii8lgZJNmUcpp9RRzlDuUd6oqqqaq3qpxqoKVOeqlqvuVT2v+lD1o5q2mr0aS228mlRtqdp2tZNqt9XeUKlUa2oANZWaT11KraGepj6gflCnqTups9V56nPUK9Xr1a+ov9Qga1hpMDUmahRqlGkc0Lis0atJ1rTWZGlyNGdrVmoe1ryp2a9F03LRitbK01qitVPrgla3NknbWjtYm6e9QHuL9mntxzSMZkFj0bi0+bSttDO0Lh2ijo0OWydbp1Rnt06bTp+utq6bbpLuNN1K3WO6nXqYnrUeWy9Xb5nefr0bep+GGQ9jDuMPWzysbtiVYe/1h+sH6PP1S/T36F/X/2RANwg2yDFYYdBgcN8QN7Q3jDWcarjB8Ixh73Cd4T7DucNLhu8ffscINbI3ijOaYbTFqNWo39jEONRYZLzO+LRxr4meSYBJtslqk+MmPaY0Uz9Tgelq0xOmz+m6dCY9l15Ob6H3mRmZhZlJzTabtZl9NrcxTzQvMt9jft+CYsGwyLBYbdFs0WdpajnGcqZlreUdK7IVwyrLaq3VOav31jbWydYLrRusu230bdg2hTa1Nvdsqbb+tlNsq22v2RHtGHY5duvt2u1Re3f7LPtK+8sOqIOHg8BhvUPHCMIIrxHCEdUjbjqqOTIdCxxrHR866TlFOhU5NTi9HGk5MnXkipHnRn5zdnfOdd7qfNdF2yXcpcilyeW1q70r17XS9doo6qiQUXNGNY565ebgxnfb4HbLneY+xn2he7P7Vw9PD7FHnUePp6VnmmeV502GDiOGsYRx3ovgFeg1x+uo10dvD+987/3ef/k4+uT47PTpHm0zmj966+jHvua+HN/Nvp1+dL80v01+nf5m/hz/av9HARYBvIBtAc+Ydsxs5i7my0DnQHHgocD3LG/WLNbJICwoNKgkqC1YOzgxuCL4QYh5SGZIbUhfqHvojNCTYYSwiLAVYTfZxmwuu4bdF+4ZPiu8JUItIj6iIuJRpH2kOLJpDDomfMyqMfeirKKEUQ3RIJodvSr6foxNzJSYI7HE2JjYytincS5xM+POxdPiJ8XvjH+XEJiwLOFuom2iNLE5SSNpfFJN0vvkoOSVyZ1jR46dNfZSimGKIKUxlZSalLottX9c8Lg147rGu48vHn9jgs2EaRMuTDScmDvx2CSNSZxJB9IIaclpO9O+cKI51Zz+dHZ6VXofl8Vdy33BC+Ct5vXwffkr+c8yfDNWZnRn+mauyuzJ8s8qy+oVsAQVglfZYdkbs9/nROdszxnITc7dk6eSl5Z3WKgtzBG2TDaZPG1yh8hBVCzqnOI9Zc2UPnGEeJsEkUyQNObrwA/5Vqmt9BfpwwK/gsqCD1OTph6YpjVNOK11uv30xdOfFYYU/jYDn8Gd0TzTbOa8mQ9nMWdtno3MTp/dPMdizoI5XXND5+6YR5mXM+/3IueilUVv5yfPb1pgvGDugse/hP5SW6xeLC6+udBn4cZF+CLBorbFoxavW/ythFdysdS5tKz0yxLukou/uvxa/uvA0oylbcs8lm1YTlwuXH5jhf+KHSu1VhaufLxqzKr61fTVJavfrpm05kKZW9nGtZS10rWd5ZHljess1y1f96Uiq+J6ZWDlniqjqsVV79fz1l/ZELChbqPxxtKNnzYJNt3aHLq5vtq6umwLcUvBlqdbk7ae+43xW802w22l275uF27v3BG3o6XGs6Zmp9HOZbVorbS2Z9f4Xe27g3Y31jnWbd6jt6d0L9gr3ft8X9q+G/sj9jcfYByoO2h1sOoQ7VBJPVI/vb6vIauhszGlseNw+OHmJp+mQ0ecjmw/ana08pjusWXHKccXHB84UXii/6ToZO+pzFOPmyc13z099vS1ltiWtjMRZ86fDTl7+hzz3InzvuePXvC+cPgi42LDJY9L9a3urYd+d//9UJtHW/1lz8uN7V7tTR2jO45f8b9y6mrQ1bPX2NcuXY+63nEj8catm+Nvdt7i3eq+nXv71Z2CO5/vzr1HuFdyX/N+2QOjB9V/2P2xp9Oj89jDoIetj+If3X3MffziieTJl64FT6lPy56ZPqvpdu0+2hPS0/583POuF6IXn3uL/9T6s+ql7cuDfwX81do3tq/rlfjVwOslbwzebH/r9ra5P6b/wbu8d5/fl3ww+LDjI+PjuU/Jn559nvqF9KX8q93Xpm8R3+4N5A0MiDhijvxTAIMNzcgA4PV2AKgpANDg+YwyTnH+kxuiOLPKEfhPWHFGlJsHAHXw+z22F37d3ARg71Z4/IL6GuMBiKECkOAF0FGjhtrgWU1+rpQZEZ4DNkV9Tc9LB//GFGfOH/L++Q5kqm7g5/u/AEGUfCaoxhoyAAAAimVYSWZNTQAqAAAACAAEARoABQAAAAEAAAA+ARsABQAAAAEAAABGASgAAwAAAAEAAgAAh2kABAAAAAEAAABOAAAAAAAAAJAAAAABAAAAkAAAAAEAA5KGAAcAAAASAAAAeKACAAQAAAABAAAAdqADAAQAAAABAAAAdgAAAABBU0NJSQAAAFNjcmVlbnNob3TOuJjvAAAACXBIWXMAABYlAAAWJQFJUiTwAAAB1mlUWHRYTUw6Y29tLmFkb2JlLnhtcAAAAAAAPHg6eG1wbWV0YSB4bWxuczp4PSJhZG9iZTpuczptZXRhLyIgeDp4bXB0az0iWE1QIENvcmUgNi4wLjAiPgogICA8cmRmOlJERiB4bWxuczpyZGY9Imh0dHA6Ly93d3cudzMub3JnLzE5OTkvMDIvMjItcmRmLXN5bnRheC1ucyMiPgogICAgICA8cmRmOkRlc2NyaXB0aW9uIHJkZjphYm91dD0iIgogICAgICAgICAgICB4bWxuczpleGlmPSJodHRwOi8vbnMuYWRvYmUuY29tL2V4aWYvMS4wLyI+CiAgICAgICAgIDxleGlmOlBpeGVsWURpbWVuc2lvbj4xMTg8L2V4aWY6UGl4ZWxZRGltZW5zaW9uPgogICAgICAgICA8ZXhpZjpQaXhlbFhEaW1lbnNpb24+MTE4PC9leGlmOlBpeGVsWERpbWVuc2lvbj4KICAgICAgICAgPGV4aWY6VXNlckNvbW1lbnQ+U2NyZWVuc2hvdDwvZXhpZjpVc2VyQ29tbWVudD4KICAgICAgPC9yZGY6RGVzY3JpcHRpb24+CiAgIDwvcmRmOlJERj4KPC94OnhtcG1ldGE+CkULC9cAAAAcaURPVAAAAAIAAAAAAAAAOwAAACgAAAA7AAAAOwAAJds0EgSrAAAlp0lEQVR4Aezd2Y9fyXUf8NtcmmSzuQ83kTOUZuHMSJZGsgxbsWzFcITYjvyYxdkeAiSvQYAACfJX5MH/Q/IQBIElGEmMwBDkh0SWbEnWOiONZjT7cB2SzaWbS+f7qbqnf7d/00NyRooQGzpE/+69dWs5Vd86p06dqrpc+DcfOb2+e/u2Aa3euzdcWL09XL1ztz1vXxiGI4s7h/07tw/rCdm2sDD84MqN4flrK8Ote+sJWx9O7N41PLq0e1hM5PV7Q4u3dnd9uLcuRX9eyrtd27cPC0mPtuWybej3fteS8JWVm8PtMX1eDgd27HDZoJt37w73Wu4bQZtu5Lcr9ei5yn8Y3rq1Nly6faeFJeth/47tqcuOjVx2JvKe8DWlR3Yttnwq7HbqeXesi7xX7t4ZVu/0ulWca3fu1G27PrG8J+0h3/XUedvw9s1bwzcvr7R6S7mUd48t7drgY3een9q3ZyMPzXRt7W5wwLtS7w3X0jjn125v1E8ofIoWUuNju3YMS2k3ZSz82ydOry9t97A+3Lp7b3gjjXElGajLYhrq1J7F4fDiYnu/PSV+652V4a+uXBtWA55/pwLs48tLw2LQqupeDwh3AD8G7AkHi9vS1CMju3dsG/YszBoUsD+6emO4UwnC2N4wuGPsCAC9ns5WDVyVmV7xtpw0VVfX19Kg51IXhJWDAfVI/hCg8aSRK43w47t3DhpafOErKfd2+NPAntVtNe1UXQhv19J5qu7inN2/NOze1vPYHmBfuXFz+NqlqwE5L0PLKfepfXvbvXQ6/hP79w6zFhmGd9bupFPeHsu5Fz660FVnr/JaJvkhLEfSKdUHLhvAikAq9PLLY2Oo+Kk9u4ZDu3a29Brvm5evBVzAdvnx/okRWJEUeGMEtmq76z7Aaq7V9bsN2LURWMwDiYYoWknvfRCwDaQxiYYHrF6O8HUAsMn3XuJ43pX67R0bQhx0YvdiA9a9rHQoHU9+2AH0rTRysYbl6+FNR0F4f2oCrDq8euPW8NULV4Zg3Tr7vgjMU/uWW3x8APapAFugaRMYXJ4Aey1lno82HavX0k5/pD0a3vdGK+Fp4V9HFQNMgjWqOBnqgWhnusGBnTsTeVbkG7dWhzfDqOZaSA778v6RxS5dmJTpxTB0cwRePo9GqnUOEijOaoC/nYjulXs75WL6blPvCQhN1ap4t5Imr9+T1OFgQKvWwfHrN1eHt8fG0PCk8Wi0D8KnNE1KqnoJfyR87oJACG+X1taGmym4GhQL6xIXJeNzq6sbwIr30QPLTcWLBdjzq2vDC9FIEd5Gi2HyyCgs4uj4jy3t2ShDHlej8q+u3hnV93qGyfUmMD2HIZ08f5MGUQ5hKKgW/tWZk+tUsDKpz+u5d0XGSWrodsKQ0MNhiMhvS29fSIDeqhdvpEmcH12/0ca2uwEM/d7xI8NH0yN3JI1yvn/1+vDSyo1hfWwt49DeNj72AJBfT+fqI33L4r4/+NIRjoe3bWPrUU2v3lgdzkVqWzmJ9OjepQwbu1tFlEQSdcDerXsRS2mZHcnDe38vX781XCE5eYDn4dR9H6kY32ufHwS00ibSfPrQ/i45uUfiTofltXRStkzRjmS+L3aMtEU3I6E3Gm89PfD3JJ68ECG8NddAsMBHMB4W/mWAvRlgVMUYp6IbIIVpRhKJQvA9sbSYBgywSS2NAd54UBXTGX6wcr0DqyVCXzj5yPDcgX1NYhX6vSsrww+vBdi8UxmNtjfjvDzRzxLYCzfXWiF3U5czAfbJGCn6rZIYi4aNeWB3jp1DnJfSSd+5rX16A5PofZGM4v1O8v1+gF1LpuRcmk8f3gxsgjbIe0Pe27dmwNIcyzu1predaKjqdMoCbB82Rt7z/gaxHam1GQEDbMI2AQucm6ns3TGBxqCGClgNcjzG1BTYKwHWeFBqQVHPB9gLDIoR2N+fALstKH474/SPIrG6CyY0GmMJwEiy1vv647t+lSFqV5i9wRl68xL7ExKbP134Xury4dgCgJW/9FsBa4xqht5Yxoupy+UAqyz8Hg2wzbKWRzLRNt+LBoqANVKXX5kDVlljn21xCNKbsWU6ZTgYge16ondsNsytEQf1nQIrHamfAiuMHcJOwcPCv3j0xDqxlqnrtVSiVEAvgrkvGdVsgM44FYldCAoYXkuNbmY88A6p3wsBjaoZ6zp87pHDwzMH9rQCgffyyq0YNqstfUuUn92j+vMsqxv3TG9mtENhkxRrqbhpxlhsm16cCm/V60W/nAa8Fm0iLBOwjLG7onH6NMN7Q0VJhdxRm6a1snppF1MP0tOf1pvNQV0rVzT1fun6zQasZ3+fOLQ8Wqd5CGWOMQAT4cUUip1RFGFs05R6dgXSjaTp5SzEoNuWMbQPAd5vBaxhoWjhDz50dN2YosFZgC/HMFIZpCcdSGaVoUIOZiw4GANEfJVayntxtgsIkVyGwoWMS/fScOh4LOf9MbL0JLQjNdkmswmZRmwKGqVdFDnvSRkaxf3OjNUMo/996XI6oxidj8f37N6Qerwdj5XIJpCxvKmpUlXSKEJ4kby/dy3DSOsM/d2jyQPvNS9vQ9BE/KjA0lby8epUOs9i2lTemuVcpPP5DD3yR/Jjc8zTJNukWR3ein1QNsNy0hyJkVr8zgMrLZ8DW4OmXPhHJ4+uaygMMIJ+HGm6ECsOF6TkUDIsY0GmBwKsaYMCVYoldmhiFWvn569cHy7GmtS46HAK1DnKQWEeuyvpi2qeWvErvK5howG7c6y5xn09lf7KhcvNWhTP+PPE3q4VPMvLVOxYhg4AyuNWtMC8hIpbJI45+sUAi7D/eJwv2mAmC+3Ve/7I42TskCmwb2Wcp66LtNdzB/fV47uvyeTtdNw3R2DxsT/tzJJ2j+aB1SZH4qDQDuhvBLAa0xz2F8BOgP0nUcWL47ztesbKH12LtyYSSzhKYhkUSG9pqnhDYodmppPImqOSju9eXWnqxz1iSc5LbPM8QSTEsLkWbXE/iZXe0IAvvdOk/0/PXWrzYdJkuvTM8myS3yQ2KvFYVGnxwVjqEtuKfdePvL8Z58uFcf7Itnhy7+54q3bed+o1VrPlp0olsQJoKdL3nYnEHo7EfurQTGKLv5ZBSxR3aNK8kTqaVsqfxGrHKovEmpoWaZNjec+liIeFXzuwvM6S8nAvrbGauHfSADKIBT4c2hFvxmLZn93IiTaWtKURbx4QxsB0Vmb8peprjFwJU+bOZTUDbH/K2L4xCst/M90K8HcxGaLETS+uR7VWo+BZnKq48FNRo0ep4vxjHK5ExV6NsVezQTzuDLOVRvbnA+pqOniFZdBpnUm58lxM4TuMYwJC0vBg9dZoQRm6pOnMuvD7vpkxs4ekXZNehyvSnGWJCzPvvp26rFUh+Ey5U782Du9OgCV2N2OPmX4pe+HUrsV1niaF7ow6259Cl4MCm83Ye3DnbEKu0Ck1psPA5YynZZDJ5+yBvfFGdQNLfPM2QCDvX08lLzD3EyR0MRk9ETfctHLiFgHm7cTXGaSXxrj/aMZU4Og0V1OHb2d+PJtPd2CP7U6zrXcb4p00ME9S5WGKtDRqq1lZ7nT0DhWv0krK1ZnQUtIAstem12dfNNgUWPG0jY5Aktq0Klbue9H25Lk3fOCraHc6HB+7cvzxGtyPaL2XV1YH008dpQGrUZAGZhgtp5AObNx0E+OpRZr8YOTqnduZwN9p8znPXOxn9y9HbexqDS76VsCeD1DmydIAlFP8YYHFG0v8I4yl8OwfR8k337naph2aQD86tTeqOAYFGQf+u4BNucbm9yK8AZafVizlksaHAbbylAcPl6nLexENZx5fnQOQQCWh7h+GAPtSVsi0Q+sIx3dsX782ijSr83CAtdqDUodYhFtLLIY14JUAeznAmqB79vf0wb3DscVdGyrs+r14pjJgtQLz/tWMHxYbBMjHytCzkfLy+CToXcShX+OjfCzBPT4PbFZQbo95mp6cjvvw+BywtIsy5UEj7Ym0TKl3kx4iHmBvNPXd05jDzgPbQBF5pALIo+CtgAVEkRWgqdTjbR5YrVdDV0vXOnTloCOvB1juT560lPuZgxljJ4Nkm1+OTlxjI8Np2qsxVA58TcKZwVFQwMr0ZIwWqrLqejOgqhyG0W2qedqBk1HNE3uMud9UApA6nn/i0i77MuAZPUkjh4UlOuoPuR7MuL2sd45xOE0MAb2RsoKUTmwBYz15FQGxL9N1UF5Oh7pak+VEMlXZnzyLX/bBiUyryniUz+3Ut2CT8xRY7BkCLCEi7+VlLbpInCmw+OUvWJ5oF/FvxBYoUl8LKfwBaOGfnjrW2qIxEICvRPrKS6JJdiVDc7Ki1RgstWQnjLeKJLVM8iwfTFgZco84tDOrTQ16r9+fxqHikTi8TN+2xjvpYO1lflQSoL8ax7p5mmfcqJg1SpgomyN9KWZ8lZkouZ/xDXxa4s24GC3byeiR5PdoOmHPUYrMHzMjUH9RpP4Oh8XYWN5/KLaDzlCsyvfZOBtoG7whNguLGslnHlid/iNxbxZxS5rrVnrXeWCPpFwbGohHW3wJT/PLeLxVG53yn506XossLZDXZQrsbiC9T2B5iajXIuMLrRAsGun188B+K8CKU5WrtK7G0V+P/1XlkJw1BnO/OpT+z3rfDK3YnTaAvT4DVkd5LOPwg4C9OAU2Q9PRSJu6kA3W6gcB1uYEpC6MqwcBy417Op417UMlmxGcz0LCrJW757ADm1YAbBVA+oyXU2B/GomVL2rAhpnq5eZx1nkRxkhs25VREdqb2Q9g/9YWwJLYog8K7Jk5YN/aQmLfC1il0/Q/D2Bt2Xk0wLYaPwywVHE1Duc0C5fPWINTRR3Y3i9IA1WsA+g6Qq0GUcWleqTpKyQz2fF+lbHQuIpFG2D5S1EB+505VVxMuRrHPhNgOUJ6Go70vl2kMZJANuXSZE2z0nXOSX1XxW9EYhWqD5HYU3H/dS5a1m0ey+kvnbp8N6s7FycWbVPFsWDl38pIxs9kqsbfXvpmJQZM9VH5zKtizpZ5iT03VcVJtDv52ifW7IHkMQO2q+JrweFcJBaPjcKMJcgNVfwPTxxtDgovjZ28TsDFkN5oUxnjqVdkPQ6LncOBeDhaxfNjlcZqTQM7aUiXih5LDyviBDDRR3k9XE4Z3VHQY5j28E/DnWo1jlxM45RzXZqn9y01A6pA0AkZD+Ijzn32wdh3WsN+LHycycYyYxKGTbHesD7rMc/2dr3VrOQ8jHSMIz3WMhL6aubcbSzPvbyPRd1z2uARWeWyK0N+RYahanDBfXmwOAtoaU9+7CJxan9XC0uANe7L+at8jblsk1Zqfq7k3avppPVeO1jaq8WYhb9/4pHsoEgvSGbmm2+m4ia5qFyKtQigF3KqAw0j/C0vZ6MWF6KdiVpC+Cfj4D6ZJbLUr5EpBY+NnRLIysyFyUIzS5uWqKpbTnsrFl7tgZKNfVVlFeKVp8miBfK+jVMBbpbH+vBrjxwYPpZtKtAv197rqZ/4VPfrmco8H+NI5YWlBsMT2aJCopAwjpHrKavokXR0GqdCxLE9yLXIbghaBvldi3RdH7dQKANIlhCLCMOmHRRJ9HaMPJ3QO2nsAlV/98ga+CtxORYph/OELwBvM2DzcDMMPAhYC+0G8gZsCn05a5FTYFXoU/PARvRZ1nnVKgpYA3/Rg4DVzKzIDWDzTOXoDEilAGuHZVWctH9mBJaxoYGa/3UEVp5vREvYSjud7gBWR0bynQIr76ORaM6RzcDOnAvS/b8AdvNC+73h0urd4Sd8ySkPL4SIvxyw+PwbCyy/d0nswwALRPT4XxNgLwdYa+el8vXCTcB+Zv/yevlXG9KJQbLcS7Q9PaD3X9Vm3nNIxymQe43BQUGFi9/TZ6BPrzZNqkIZUyS8JJaj3QYx40JR8VDPvDGtAAGJx8dr7rrOCOtB6ak9A/nYoN3G9UIoYRadDScUrWBGDDuiUZiJdst7A0onufX7nq9QGqin7nE4E6rcHtLzqHvXqcQyftTF5nTksj0u2wMZq4tupmLfyXBGcxUvq2HBQoA2Q+pntyjOWn3TPLUq1yKkWqt5UQbcwseWljZqYdzZQ22O4twSzP1sRB7Di5FpNGMq8KuZ5LmrUE3oOxkfrsY4ei+SJzddjVMa88fZbrMyGevm0y6lvCejrqlc5Nc0qhYOWuAY7l49jKVHYxlPaSVjIcMMKXdfJqrUoMaU9fWAwJNW5UzT1v08sIYhTpsiwlFLocKuxg33lQuXBiNLCUNzolSCXC0KlBEruPNu5arI0KTjdt4WPj4Cqx8/DLCVzf2uBvGdk1UTxoLO0paTkpD0/byAJaEd6s0cF7C8T7Pm7LtIapem3m+81UnFl0+dBJhK8eac3y2x88DSXst97bMl3QB2VCaVH5ArSBtOgdUx2DozYPs+KZ2y6Zj7Aasi04RV4IOu88Da6U6VyE+vvxijhbN6StVThYm3SWLDxYvZM3Q/id2Txj+bKVEpVvmtPITEPghYklEajIFSJwHuJ7G2D9W0g6Sb/kzXUkksp3+RqcuXz0diC8V6kWt1KMBOrWIawNx2ik9zKc4DKy8NqkFsEZVARRZzxiaadEsSB3ucGFMyp1wf1ZlwI7DZEHLhaLA8iGRNCv4qa6m3RlUrN7sWNECRsX72VKGzq25iIb3IeHUqqz+2yra65AUr2tpqdVddbZcyRvUtbeN95NWz4aDYEGzMThtvEOCo5kri7jx7YAxw2Rve1bmp8zxbRAEC8l4b2EzvvrLGV3PlJkC6c7dXMxzdTIwe/5FMl57NPunqC9IyGOt5QxW3FF7WTa6a3sYzPXYrkplVFhNuDdAyDxeMqdZAYyIuSnNSWIvjNNqZOLQRteE4w/9862LznHgPwpPZSspEU1GlW0HZ/R58iMN3+sK4CT2P6f3rwycy7Xo6467GVs47MdhsVJvWpkNSzTlrWHkU4Qm5sjzZDNVvpadKZ3GyYT5zY2NdkTRti84YYNx/K46Pot1pO2vYpQWktOt/KRYXUM3/n4+N8efZtoNwezLr3b+cOXrxUeGu6F3A9uAOMMkpY6rCp1cMzAOronzDrNyq2ryv+PEA+9gGsFkNSUf4kwBbW1BJ0okAy64GgorYwgrYynPKRwM2ebyYypeCN48F7NnJzn+eqdpaOk3/sPdqZJyzx7f42ApYTg8nKIqcrtsEbDTTbMN4HAsB8Un7tQIwkpLqrYV2oS/kRMJXJ8Bm58vwy/v3bRJEaYsasFMprReuH0RiVZTKmwJLYtsabjhWFi+S86GIJF2LxP6PUWKFkVMHqACrUiWx5eoTZ0pbAUstffwhgO1NOctNo866ZOev3gpn8fdjlh04v11ix+dcXoh/+X7AljOl8iWdHdgeQr+wS+4H7IcC7KfngJ3WZeGTy0tZtpsGVeZdUqjhbvYUG5uvpgIYKFWs8hgvP6/YnNPCVJ1qcbLMGaDmw02YzW3/5+KVNicWX3mmIW3uKyDkMNR0XbiH9t/3AtbeXWdVCY/OsSGxmAjZRGJK059aUCtjs6ruEqQM8Sw0MNSmaeo8cc8hh86uX2+7Lmg8GmQ5nWFqwfKrOwVYtDdteDZbg6pcwLIvqk2V9mK8dd8ddzrK15j9bGyIKR9TAV347UMH24n2aQQFqoiKX82c0/zo3dB3pm2LPBjfKRAqD2qEVVhp+DXlUe9VIK9nlDFkKo1e2VtENY3aKUuJDLDKYZbUnfjU+FQVd8/T/hxp3JfOZJ9FHSbuvmLlX4z35rWcpitW5P6xg8upT98gLk23D/pqj/fWhO28KNJp2sL6GCDONy5d2Wgzzwyh8j+LJgwIrsr27rmD+2dtksALAfItqze5V20bCYAtjZRraQ/nZ4t3odcz06AZhS38nQDLdO4JvJ6RVZcCZRY6u8Oced6hNMQUWB6SJm0jKpfs9JsAO8uh32F+etoOY06fNe9T7smUjlHzy/n04m8NbF8E6MDODhPrcsq0VebVrExV66jPcwG2WbC5l6/pTS1e4wOw9emGvG7tdjUGWbWf69dHYHUMeQJ26pBI0AaJrw0/mR0ieGqU6/wiwGZfMb7uNP4riXxuBFjeJ+X+TIDVwzuw3frs81jS1ov9eQH7wxhP1cC1CPBLsRwL2EvRHL2XbwaWl6dAeBhgTdVKgSvPPLTKdf1agLV3qsg8diqxFe4qPmA/tQWwVqJoLXHeD7DyHVVxT6wnw8IVlcTas4QU0N5ohRAV4Uihsy30fhFL2rys6OIWEttL6DH0VDsjyyr07v1KLPfhi+M8T66mW7+Sxjqb/Uj8y/KmMo2z6qdMEttU8YzV4eNR3bONZtlk3vYRdfUm37Y9N+OstkCuK8mzZjee7W+mwquzmDnYJF6kfubDSHygfzTTnbHZW7i1Y2do8WkgNLwZ9sT355ipNewxm5aGEUdi0cJzzXjqkTGwP9JnE7XXJvnOx9YiujBjIYOqmD6SSjqayIHQkE4c67tTq/iN7PTjHzYeIbv0poeyhBWo7jH7foCVhhFkNjkWIWgsr4Oia5KM6aFlOyWutXXSnsrvU5mK7YvNgPBhN8SGesszQ8nCx5SmZQrXMYJDIwvxlwLSD6/dbG0m7nLyf2yy0N4EKOVMQcJWnVZU2odycsAHSHoHioMjPmsCU6T+r2QN11EZ2GzMYyWmMqjVcl0BdnqiHVNWTMwnTURIxbFMSzgPWKyaVT7mreVIz2M7GWesLmB7HlMZF2tGHwTYSl2N48ppUYsA+DoczXJo3LLqPT+yDXGVBv8WEsqPK9wYa5Ode3++0cHPXWnqmleNaLyTWbPu7dE7rHVgp+1KGCwSKKfIORzz2mkHmeaL99MB9ukMK2VA6nAXJrs/YPVSTgLYMP5TA6sQB6H/fwK2GkvDUM+1CKBxDBk/C2D7kZhp01epHXz7qmk/xM64H7BiOQRta+wU2JZ4/PlAwH5ismxnikJiGT+IeNvra+MYUjA1XLvnSaATYA4Yt8NNeRbHmDxVxc6yTlUxid0zWf2R97SZ3C/FKi71LE/GSOutHkaappkEt7feAdZGcvdqYMvroV3RLDnLo929axI7Jnbh7pxJ7ELe5/j/KLG4tIAxldgk2UTKsn3IXmhlUskOPvtOBR2lDKrYkU8kPmDt1JivQ4uQH/mcShs/tSGxXRV3ie2xYOVjKvartTXo38p0x8AsU3Mgc6FyxivUmDp1xgMZ2MWESTTmxUWuJ7JNklFVdOHWrai00UGRQEcxa5eifOTvNLa8kA7jo1d9A35Xg33RvL+XxnBgf3JN4ql+xkTx5Trl3TNHiiMayDN1aSpSaYQfCB/mjEpqacb6u9fRfhiAXr+Z8TJptyIt8/WL19oX3JJNy8NnGIztKE087EmntSesyB4v56emfNS7urJhNnBIJo7lXEp9kTzNSh7LkU+fXTIjWPj8OI8VgXeIo9whJBXTw+Z9xVQb4A3uvZmlnJE0j6YABsRW0x3MHwbsuPlbQ1jFOJFejjlEMn1VxqqJEH9tbpzKIWn4bGmL2vaJr6k6qzjl+FAuH29pG8/eNc0xqcje8NZ3O3TAzT/FE18n+n4s3teyJaU6YYI3EelybpdUF7B8xbSaPPxp0+Nx4hcBtjp+hW11Vacin+Dz1QDEsrFm7PMHDsOZ3m2ax5JGwFJ7GNTH5ld3Cli9ZCvS9Kc/ALA2yTWnRtLTHNZfHwZYUgQXRtJUnRWwtTKF3Z8VsA5dVydMtptIu3353OVmxFR/mS4C/DTATgti1PkwmPaGlo0Ntv0eDbDU8gcCtn0yKBwW49MCSexjGT+4Gev9hck8VsVMkQ7G94t0EI1EYklBt7bvtSW4KbDtw1pEQJr8+daCT/PwTiVZmzeaVnmHyPpsi05Pw3Zw/KSIJLbzscVoXvAF12RHXhbN69uKJbGvZpgor5i8SEiRu/8Vib2SOaUhyisHwxzn9M7znmgzn/Yr4v6culyFiztPEzbTcXwE7D4S+3ePHFz3iTkZPYzEcmpTHRjUoPMkiIuRpJejw9rknXwvsZgFeWuYseKGvZO7d7eGkMYOY9tgy2iRp728UymRxocoi6QbcW9BJEeapW1Z4B75FHvbgje94Yq/FjD+mL4Zz/u7hbbprqZMfYy9nv2+q8mnZ+pSmqby5QGj2Yqoc58R6PXP5vmk8VGWItPGqX0gZ5I4HccNTzNvu2Ezy6OcLZ2N8BtNmaVQR2eaxP7+0SPV3g8EVkTqTIOO+SXk3eRY5dQq7t+g6BKMEacH6nysPPXdY5kiTLddV8PJXVkanPFTZMXIEQeVkIfzQJ87fiido3OWeuc4594c4+gHmQB17c7acG31RmJ32BgsdkxO5eO5w/EVZ6e/zgCw//ba2/mU70ozqHQcu+/b0YqxHKXtjzQCArmeNt0Zx2W80RQ2iLtHBMg8tMjGhB9l6KmQSlNfUBXPDkvLob12DD/+51nnEEe6GocX3i+w3bnQHRTFqEyLZDy/0M6pzm1Wm9l8qoDLTOMjTB6Lk8MUYSsSWsBK4hmwPgICWH8+lfPrRw9uAvbE0lIHNomUvQLYNdtLOrA+7nUhf1NgPxFgHeEoYL8YYF/Iwnl9C+uVbJA/dyufAxhZdeGpKmA9n+Sw2QB2vQ0b04X2mn0kaiMeMMCWjKtjW/cdNalIdf5nLLa1lQ+JvBctfOHo4da8qsp1yHgyD1UI+ZhaxSL+rIBl6FQXdtTqeNTIg4B1SAmpXAe2S6wOMg8s19uHAuwjcxJ7dQKsPVJ2VFQvV795YP8IsPEamQLRIoB9+2Z8uKPexwt7Ygpsc9g0YHvOPHnAlj8CrBWhIvPYBwHrUBuBeWhg/0EOZYlMWIxpLC0WF5YoXOrAuZFOCQvDABBSjI4vNy7GpFKRAs1b22dqkkg6zm0rLUg5VF77omoL6T8kpEiaR3Pc0TDQc+j+6HOZH+uAgKXuf/Po4bYOLB2DZv+upairPs2Q7u56vntxh3+1838+Rt1LWY/doOTzqzkWcoxlmULx9cevvx0LnbGUVAHTJ30vRlMUsNLOuOrcnYnxWHuRN/Ieb7SZPjEdP43Hz7cN47PYTYBSX/HVXz3ZNv2pl8nnvhWJv/Dvn3psve1MyJNPyf44PdKqh5eSPeh87FYZz4cBpL4B7N3NjMF14Go+rmdlT7ef4oMk7c8KEJWqsr6ydi6So2OQuRMxvn7v5LENYKV5Y21HjkDmLgnMzE/vuj18eHc3Qaw+WTf94mvnvG5luv7jMx9qRxx1TOP1l2PhvpL9Ru7x1XaDjPPrPDZbwmd6GUDe+5t+/VTn8DXYL71xoeUhDWfMbxw56LaRFaRvZD8TLVNku4w5tiBwOvW46ctskWArSO9FC/8uwJJAasbykw8+/nUF9nfngH1zC2DPbAC7MPxFPkbypdfOp/GAosOsD3/wAGAZMCxSACKAPv8QwP5xgC0bA0CfPfwLYJvmeBiJ/QWwvbP5XfgPZ89EFXclwuH9Uqyz+miF0MVYsyYqoujVjlpynpfWqJ47y7Krjo0IedE/oTObqjyMKjYm19BuVgnYAz5T1HjtDv4L91XFC9lkvS0fxO4qlNlxeufa8NjubrRQrX9+6drwX1+70Fgfsx3++UdOD0+1jdhdFdsW62votYfL6fyaX0tIYl/I+FifIdIevldc242o4u/Hqv7SG+ebVtRuvqv8G0cOSd6IKv6LqOJktUEwcaq9gsxPHTqrZ8bUyminVCKf5ytqxyjbdDwcMXpejUFyyQ66MeMz2VHIYV0ZYqIZVyMX9iGpXL2XMVXDW1PEOJiuz94PWPmYwJ/MQkK5AzXWJ/LtQedSdS/DhsPZ3I5tupNQxx1+6xjjqVfOdrQ/Wz0yfGv9cN5mSpQO+eTJp4ezJ57Jm6jS7TuHtbe+Ptz68Z/IcoN27jZlip2eMAp3+d7VYTFGF750hhcD0lu3LJr3RObrzqk2x/uYj+04piuaSIfgbPn65avhuw33bT5+YvS8Kdh+re/nf0cxlnayHJpvK8c71c2lbHbIcMoqVqzdne1TRqM3SxrtcDlGnTVoLbDw2XxLEQPhuY0d7b9nSUGImW63uX3ARbaWWKUHqAx8k6J9DmiMoG6sQltI5Il4VZqTW+uEHgxsPsGX5bNySBibnsvHnQ/kMwkqBlgrG99+53oMjj41813iz8Yg0XhoV2r/n9bODH+240xTIffu3Ro++vTvDB9/5nfT4Dm4HOE//tJ/H579wX/Mc5qPazLpvnpzaTh/J58LzL1W+Pzy1eHDi/mCeu5Z6l+7cHH4YYwhkohY5DxRAEaCz6a9yg0pH53wJ3O7ISu+NM1BkVUjOfiz4HcmG8i1u3jytGvx5ThHSigJ28fy0bPqDOK9nI7+TrBpgvqbB/c3jrBJYt/MioE1PcQf+8kAa7W/F9j35jpQpYeg21sAy1ds2a5XvZ+ue7/AOi1QwAKrS+xmYL+zBbClvhcD7H+5/djwlW2PtY9e3wHs2c8Pv3T274XrbGjfng9ovvzF4cnn/zCtmbqk9fD7jVvLw4W72fOcGrOk//bSleHRDWAXhr+8ePn+wCYPh8OmwL4TYKnzXkIizFEBCyR/29LRHguw2kA7N2Az77feWh3Xf2T1dJz+hQut6T+lav9/gbp8bgps5kmvRxJ8EgiR2OcK2Fb3fMAjOsH2i1ZgWPV9BR2iw6y3DYNv79t4VarHIoBlplLYvlI6P92p9K6WzfTWArYk9uBEYi14T4Gl/j93dOZS3Bmf8H++dXr404UTaajsh8qnAZ956ncC7BfCe6Q8wJ587Y+GZ1/4w857ytTwfxlgz4/AUsWfC7CnARvGOCm+sQWwPr1AcyB5PBNg8a4uJPZyA/Zm3swIWEVU7POR2K4n9bN7AZXEzoDlqZsC2yQ2nzbUJxH+Xsow4XP5JPb/AgAA///yKBLAAAAnoklEQVTtnWuPpMdVx6vn1j099/vs7M1re3cdhzh2IhMnzv0GiAAR4gW8ARKJr4BABBBfAAKfAQnxAiEhIXiBhYQcQ0gU4iT22iHxer33mdm533p6ppv/75zndFf3zOx61w5v4Kymu596qk6dqn+dU6dO1fNs6YXRkeZhs5lKKaXDZkq7zUaqNxopKW2ory89OzGSnhgeTLpleRZ362mxVksHut+jlN3DRto8qKcGGQqq9vWm/lJPXKY+/ewtlaw8iVsHh2lbf0HU3d8LNyfyzlXK4uHXPT2ldHlkOI3191oCOVf3D9KPt7fToeqnauo8W62kHpWFepr19Nb8V9Kd059JJQl3sF9PP//8B9LHPvrB1NvbTI1SX1r59j+lu3/3l8rtraPk9cNK2mm47A3V8+Xh9fR4eV/tTalPvL+9vJbe3Nyy39RDyeXafjosOoDqp8rl1n14btQP0s3dvVb7kLiuLjYSA/py6+DAeJEGz5nyQJqp9KeG+JbU/rVaPd3Z2zce8OzrLaWh3j5galFd2IElVHp2eKi5T2Fd9OlvUChUenosw7A68rmJ0fTESNUq6xFY17Z20rXtXWuoeKd1Cb2mTmNQQHxtSsh60eGknR+qpKmBAet0Gn5PHbFRbwMrudOwBlFAiyzV/h4bDJQn/fHhaqoKfARliFDH25KjUTSEevkdDW02amn643+cZj/6e6nZOEj79Wb64ueH0mc+PShg4ZrSd//xpfTXf/LN1mAgra4/7w39bpbSV0dX06Wy2qf0Xgn68uJqurKx3QLO2rt/qDJFBygfmMUVbdnRIF4EFF0gH8BuZgO7T+kjff1qp5OqFQalVJagzrcpRWhoANVpvtGG2n9nr33NgJ4v90sZKaM+ek7AHghYhAlgBwzYRhru73Ng1alkpjCgXtdfXWVoKKOxG9gdgKUAf6Iz1XKaGJDgKo9gK/tHgWX0hbaRZ9iA9aYC/IWhqkZor3UOPBnhV7f3WsCSllPzsJbGX/iDNPHs19SZjVSrNdKXvzCSPvfZkaQxZPSf//Av6W//7JviGd2VEjqBpkIH6uFfE7AXM2C/dQywG7IeRVOtXP4BJ6zTogZz2KwDyZNbLBQE6xj34TWoxEEDFm4NtbcTWAb2suoNwsrNDPRp8BfAHqexAeyIKntuciQ9OTzUAhYteScDdl2at24a603jc1uV7vPDk9I5ATsuYKmcEbgm071eOyy6T6OLhnUBOyJrQX7oJGDfkhyhsXSKG2UronllT8B+I00+93WZs8O0L4F+4Quj6VMv9suMeZ7v/fO/pb/50z+XqQtdSakmPiH64TEaC7Cvd2nsg4DdOTzMtKtp1jCApYW0rxvYqhKr6gPvwoYUqBNYBvbS/YB9XnPsgJhoEBnRRipjlJfVA+cGB9Ps4IBVQOftS8h9dRTminz3BCom4ZB5mXL6Y44OW0/a6epgmpD2MzK5v6XBsG2m2sUGQDS66G/LQ3m/ezyw24fMW7XW3IbZWqgOtbW+qdG88Hn9vaAa1Zm6PHOxkhYeH5YpRnLN01deS4svvaRfyE6a5sNmr1sb/Wbofby6lU73H9pU06d+enlpJV1Z7zTFWK2c9tX+mBJIr+uipjSv1c3qrb1aq0ifprhJaZtL4MnkrxUdwPiuqb+whBD5mPPxb4KOaOwnx0ebzH9NVd7ARMjEHogpBIMBzWv9heYg7KnBcpoX0AjDSMMp+Okmc27AYEU7hDyjMuNyBkIv9jQwasWkTCn4z1cHTENN88TrlkDD3EPUk5tiUuGxJEcO+NHUqUolfWp2XtOD18K8vKi5b4M5QeV7lOfmfiVdr5dVWm1s9qRL1Vr6xHBNV21aOuhVh9FycpXS6YFaGunVQJb2MvV8a0kau97pPG0K2PYwlI+hgRsDmyaU1YcjhZkolRryMRrp1fXNog71sdq/oD7yWi053ZbpvinwY7BzL6YM5C2rDKY66FhgJwUsJg1gdzNg6SK0dqDwcMkDqDOVAQODim7t7KW3to4CGxXyfVpCT5jz5Kl70vpaARodggc9Z4PFm0an3JWz8SBg8dAD2MlyJX1ydi71tICVtyqQNg4DaPFslNMteb0MHmzOhb699PzglnVogHu33qdB1wb2bHkvjQpY9A2vGGBfE7Ctwa4mObDeNj65bjuTzcTUhlMDYR1W9xvp+wWwpB0H7B0By18ONnmRkzSsbKXn/4E1je0EVlagb/ehgAXMl/8XgUVru4EF3HcF7IsyxRP9/eTXKGvIxLVNMWN9QCOtv2DPaJmTtqJdqD5e7O1H0NhdaSxaC8GTEc26rR+bK2LqWNrXWrmYQkg+b16xax+5djRdLGtuzzX2xZnZTGNLaekw11jxbPSn26axmnPVpgt9O+kj5R0z9aGxSwd9cvxUjyVoPa08mGI0tleW5ZXl1fTGBqbYZUHEXc19MjItYikXptgsktqHlwsxJaCxPxCPIMwqU5zn8NQlrRxyjc35kwONxQMOwnpOy48JT7r0sdHhZrjItAYLGTLiQDFJ8wch7NmhwXRWQjiwSUudA80ZdTkIsUjQ/CdkyBt8clOM8Kzp7tVZMTqRhjbwTRk6cE6L85gvSWdtzTLWx6uDz0AkP58jA5X0oalTAinAL6V7hwpCNAqnBP51zWv76/KC4aPOKSkI01OMHk9KT42NpvHCG0WOv79+K72xtqkgC1KoLxj41st+TfI5BUboj2gv3jrODi0i16YGMVNLB0n2IKai01o5dJD4aXFX8MSTZj18YCsI8vUL1KHMFNNzTF3+T730/MhQM1DuYKwLgN0Rx5gPAf38UDmdk/YQFTKhtUYD3HyEsiC/H7A4BUtdDY1O4RveT2jtnDsHcT+XkfohgB0WsE9PntaVo9Yj0BYP+9NqY8C6p6nOG6wvp0r9no8eFYYnfy0+unhxdjzNK+qFM8nA+osrV9N/LK+bhpCXZVlFVsw6UAl9yvP0GP2BLvIvSaO3bXADK9IwiFlzF2PD5uqRQtuAt6wbrrEuCTyq0nCiafyGaupTsLAcAp0+GtIAzIm53YNNqvlBwOJM7ReeAF8Ae/Y9Aour3w1sCEhDcFIeVxgzBzbuH/edA4uWeWc0ZYo7gQVU/jKFO8LuhZkxAYszqQEm0L555Vr6zsqa/QaEIZmNsjSFOoARk/yUAdte/77ZBeyKgH1bU1YQ7SPYAg+AOg7YzgCFDI20niWi2wBkE4/CIQu+rG3RWvJ0AOsd4tmoEI3NgaWx5wqNJQzGkmJdzNDYCBTQWDQWcxX8WO6EVwxfNJb4aitDSKZvOo/RSAjxYYAdMo1dkESZxmpOXTtsa2xlfyWVDwqNtTqja11SPl+YHrd1O7IBwF+9+Y4Bix8ADaozWSWQ14BVjZfHhyRzG9gfy2vGV6GDKbWKxgpY2g4x+EYJoIvgQ5z8lOLLcZ80gK3oj99QXVq1XSgY+RzYKEEOxZsVhNlXv1uE78PDVS3JnQHzOzHbQVXkgqujlbHgZ78fY44drtgILukea1gcARwIhzqlaS226QBEh8+oeGJWgghweMN9xO6qgitbW2ZGGDw06FdPzaQJxT4heKzVMDM+j3PNnEY+IxLUWXULinoSco/2D6RBLbOQk+jSRm0nre/htHh70Ta0JSdMdkRrAI7BhblFChyUa2rvHdaX5BPxOTuIe9nm884OcyzAuuwV9edw1n7EbW0C6Ldup3FCigULvm7s7mst7+Zb4iuAMWBLTcwNbaPPcLCQKephDpZfZlT6ULXamsbxtIgAYSaOI9a5j8lEnlUkiY5l1Hx/dTN9696atFSdXgh2Xs4EnnZxaaMPsxYJiBL36NcNafgr99YlrDRdFTMIvn7+lLw8gVJkvK3OxCGB6Bg0hE0KrAYA4LDREdyD6IwzkmNeThhp5LNFP5qjsqSVJVPuWVKOwAgRHXJgdT49MyErNWidSZu/Izl/oo2Q8IoRb2QA1XCC760dBVdUljQknlRfMLVwD8L/wGwGIRtmNXiQ/vrWdvqR+nZAZv9QinBOFuwDI0OFL0OQ4zBdy8x7QzUBNnMsfVr6oICNCgAKYIcL+x/p8Y0XioBnBCxmCpX/oTzGf9cctKUhqEsTDi9xXK63d7qbFUwZHdpNCMFORwBLR9DI3zFgNThUBgHRkuOAhR9cARbPMxrDqCaUOSutJw1Z7+7tWUClJG1jMCBTN7B3VQ8dBE/a+3GZ5tNqD2DQ5u+tbKSfCtjQWPKNGrD8YtApapYBy6IOYB/TDlfIBuhMV0EMmBxYOF1RHa+vbUmbdaX8DNLLGbArXcASf0NueEOmsVFjv0zb2AOAvaCRc65aVcMwIQJ2dSO9kgGLrp/RCB830+ONrWo+IbpyX2CXV0wwxKpqUPz2+YU006Gxew8N7IKAnVN72Abr0cdivZZuaCnCkgiH6ziN7Qb2BWksyzu014BVe3+y2amx3cDelBklLEvrac/4scC2l3toPwH/sGN8X9ncTldWt1IPHS3Azmj6awOreVtLTBwynxCwDOwYsTwtgP2V2SnbaFf9JgRa5nD4iF1VvHVX+5kQ61kcoVPyGmkk/5a0CXBTc0oRkrWyBDHYGQpiDajslp80NgncLXfNgO9dOVOS32TAMTutIEg5m8eqmmNwqiBED1PMNcndGovmzCrowa5S5NmRVu9mmrIvjcQKwC8IRzBCmfAY0wAdsKkJWUtpRR3KXmgMUto12mVGiQ27VM4VjbSNliIVWVfUb1DRJLWHni8SJNC2zC/yIhvpoxocs+U+TQlkAgsOROSSs7kgjVUJ8pe+dna+CcqIwuIbl5pvbrLDwNy2ovUR13Q8m7kz+kNY0lB9nJq8d6Y0r7HeC8qrJ4251M2d34FTPqtjjtfkGMTaGGv0pE5QhHtPqXcDLA4H239ByOvTg5/+AKAlvPOMbNQXHUb+DXm04bSRDTMOmEH8ZBBHGm1ZULABa+CdUlI/dp4YiUEYPKwXsk5iNTIkq1WNZZUqiUhTZOOarT4IGRB5R1tYKAnXpd89M98kakSDARjHIQf2ro7B3NMoDpolpCgtwHxQSV1CUyYqJN90F7BRNr4BNnZ3Ii3/RlO2CaQXiXQRU8CjADuaAZvXQePZhWHbMSeO7dB+iDy2NlS/8Ps4In1EIPgw9zKntFMVSyLuYxlwLoMIpx6JRMVNfVM7KxOC/PzmryyTHGtfXZrj2u0fsMfrEUBJkwOLhqD+jwpsNB6NZbSFuUKQnB4VWJYM0dDQ2NDA0ALuQwwONPb9Bjb4ey0O5Oj7DCxDgGNA7wnY31qYaZ15QmhA9dlEI81M8b6ZxWjIlDR2RhpLh2J+9pTHTgNoUARhqsNMRFr+TYgSIGIgcA+vNQgJAB+O/HHnzGBF61Z010ELjzaKMd8sadoIKfie0Bybz/WUxaxDfBGCW5YnTUdG7b4J4lxI25VFMg3mQsmsHPAvkDGor9Rp7tlb9hCj80WLsEBBNgg1V+dkq4YsgfgFfRySuaPXPhLAdTnzYyi6J1OM/2KlOPNEZATXkaDCec0P0+oQBKdBqzJVW5lQxE8pCNHNzL+3lCdOUJB2ViDgdESnkzcnuiQbB9bZ1a6jMURezNUnr/5WNB3sazA4yUOVHATBQxbSw3TzmzJD8sIqxVzPNeYsHDKsCWevbu4wxwZfgiN+JAfTSh9g7nT8yvixhHpSS45T8raJJUOE+l7WyUVkC3OMlcAHgfiqKc8Ok19BKMOi1ssQqazbnxkf9sy6pswNxZbf1l8RoLJNEI/EOR/iAljFnLgTtZSeGao2bQ4VsyFlviC3elbhLYiRhpcY53MsMftA9GV1zm2NPuZnrvk7B7AyT4AcFenniYQWdZ95yg+z0cHMSR44cJ6Y4phzg3F0LNcOika1ebR+zQ4RwEHUyam/G9kin3R4umPowGL+0Sbawbr2qdEhC9CEw4n1eenuPfOuo/78vBb9QaQNjzWI0x93tSSCGFKcrvjI5Kj1lyWq0FUdXrharJfJw0BnkAUX2l/t0lgrW3y0gGWUVNWAxwXszEMCe1cdRIySRrQ09mcAbB6gwBwS/jyJflbAXi6ADY8dYP/1fQCWY76taeL9APYjXab4nOaHKc2REKYYzxGHKogOMwdPlWtnzNZ0Kzp1SJoBq49T2vYa1iDB3PlIJy5yMqFDdq6Y0SVicIxLBtazWDx4sCxhpHsO8rA2bJsi0sN066cRQREpgxE82JWJMlS1oSnENYe7TgTkvSVeL8F6TDg5OBT+hICd1/kqTDE88O5f0QG32C6Dy4DyIw9/ENqd9yG7Zat111jahyZeHh1u5QdgDupxiIGlvKqVRdPUU2gssnAWjfa0SIzwSuDH/dIvz0w0GXWIQpOw3Vl2O3GOwwDxuSTtZGOdE+qAxdJmQeEuTAMMIZyumIO4vi0hOcmn5GMJQGbs5L+bP6LMH9QTCJgf/jGYNhQoQUuoAzm3xeymQnfMe/zDXE53BeM3NY3YMiMrlwtQFmij2rAIon1v6ATiusrhzMF7RgEZBin18kdfxPzp5TwgH21HlqvbO1q7toH1spFDA0y8JxRVCyJqtJrFjsk5JIcMH+FQpzlUvcXeF4Y4dOil2O0hzhCErGvylXDMoNJX56btwLhD59lCEFwTPFGPpKhDlcn3UnViQsBSyWlp+AXFj8sShEZBnKPNoyLXNfKItIRQXot/IgaaNasO9MGhw22q99mpUT8hoDrhynFT2kEdgI1H+5b4MsD4h5c4Lx6AHsQaFYuTU8iILMyFHMnJ6VXFvnHUgli357Fzq82baVkkuskT+bn/psKBbHfmfRr3+a6oEBvrQXiyN+RDBMF+UtMMR1LpH65xaHmEJRSmpvl+N1sbs0GzrPbaZozyt4DV7w5CQIAF1BxYIlFLOmuE6aHGBQHLxsBABuy2gLUlQsERB+V+wGL451pa3wbW18LesC0BK9lVJc30s8ndwM5lwNKpxwFrhfUBHxwjOiyIMjmw1ER4NAc28p70HcCybDqJBqUhnNII6gaW9IkMWMBlAJ7VigW2yPk+AOvPkFAZGhvAmsYqbUEx3QsK+mMKg94NsA2kKwjT1G2Kn9UTCCyBHFYBqcESDgtF0cR4xIPOhMe8Bkew5fv+wDKvA6z7E4hCmR9IY1eL5R0dSrz5vQIL31x/HVgfUNxj6rppB/N0UdCkrMmkHFCzNwKT+AFx+hguALt3P439ysxUk5BXN8GAQBlrstgkZyJf1YY3a1scCYTiIS7cbmClDGn8tWFmMOzbw1thipnDeYKOfBBOlj/i4I4CzsczOpVAqA6C75q2qQ6aaqYuKMcBseuaY+HJKEaOMxpk8A0iYL9pjYeD8qgBFeVTdVaOedRjulHCZbVDY0USHeul/RsHZrCYc9ul2r8YZG9p/YkHH5LgBFJvEMELBhT34Y1zlcesadOkBtQsO1NFIXjE0o0kllC5QwaE7F61TPGXpsabMeEWPOwLhsx9zFvs0UIIko8U+pATh7b/WNwnH2ZjSA3Bc4XPsuLNCBHAWhxUJp578KTvMbVsMkDU+4w0Njb8SWY7bU8Z4MiQYB6/pzV0DFrqe1JTQvuUYmisz5fMQfNaX5/SXwhCXBhnsA0da0o9+VB4m7TvVe2JLkqbMEgMIJ5DmlWo8qgqIDmc/CkG2/DWNfngSWzAmieeOF/xZABlCO7w0FXRfPtmB43NBKwUg3VJDujb2zWzmpRheZnvVDXEg2d5dvUNlR4W2D11UE1CIAYCciiN5zajIQA1ZcB6VAhhAZZdIzqGcQuwMW/rUg1zYAEesQD2wwI2TCA82sD6YMDc23Op3BQ9DLC2VFEZgCVIkROeaA7sDwQs4Esk63D2Zh8FWGIDhaiKJrEGb689jge2XxGuivpMA1l108/XDVh6GGA7tyAZuEuyppy3hh4eWJkA1m4BLBpLVKgbWDbXc41lJAEsRIA7n5NJR2PjPt7xh7TcAViIYnc1YlmWQTQUYHnONsrAkwe0H6SxrEHhSPdwcoOlW045sJoRTGOXdrX80azAwMPcPwhYlnc1ZWYQ080cNeWxGMpD3cCyKc92YXHb2rSgpdu8NNbKSA5i2vcHVuBrbRyhyw5gaSzCxK4M60t2Lgge+IKcrT0dBo9RoQJsxAMszpSVVXnmxnzu4hy9PS+rexAP9aK1QYDDuadoGHDykJI9+Fv0BqY3TDVyMpDWtW5jDuQaLecYDKAH+ZloulYDUcyJLXMmWNUb4Y3GMZgoM6bAMIexIXhd03xJPRRBPgYbMduQlXzMmUGYYgZ7hFjJh4+CExZlGLjj2jQP4iFxrF7cZ6qZUh9OazC4xurwu6zeTT2rFH1szmeMFDGirG/bOZcWsFzSHBoee4moN247HQCRBxNKzBVthHhNAV4kc127eXar9ZE/+EwijkQE47lmrCIUnQ8Rk43BwjU1sZ7s7lDuBfnDxOJU8KCD0eJwOACTzrstcxYeOacnJ9XBbTeO5U1/K54cvOMbHqzJWe7F4EC2fD+WvPmrGxCH+HMAi1wMal7FEETb/0tHbqL9lDE/RAOxaI7xXJaptT5WpUSicvMOL6ajsIRHgOXpOjodhj9LYCtFHQj0fxlYBgZz/YOA5SRHHHhgUD00sA+rsRvS2DVpbJx5AqhuwuGYZA+3sJNHNFZqxpwZI/ZQy5q70oqIXtH40Nhu3nHNThQnJYPQDBrv55VkTcTkOI2NuHiUu5/GIscNHXE9qrG+dAkeaGxMGygIjhKBDqwJgzjXWO5zYvEIsNI+22gng2hLPOMJdrT2gcD++vx0k6A0/6g5ugZ+/N5XpeG0kMa8G3Zel3YO2PZJwwaS2EVndPSSk3o4I8ZXHxb31TWdhfPAo/j8C/I6zPBY0oB+4oVT/jgiPT9uQ3s4ZMb8xj0clhvae72uN81wEIjWTerpgXNyUlwKfYkGNceGA8Y1bYs3TDD9EPNmvg9JkN9eDMIPEd3A0xERTKFuzOOwBhm/yUa8eSyLFbM+92WXbop8Qee/7VMjflNOK2+OKarRFMO2XRZc0Q3mfw7AWz1/ePE839ZUBL6q45l4ijSduY6YJwFnCKYIva58OFNM7KxzH9PGs8/Lns8yZx+ciZ1Q3BONVb16InzbzuY2BSjDBL90kccmVRwOjGieBJiyAL2C8cL7dT1tgBNzEsGbuSzmS2TjCTYe+cQSsM1HgP81PVcDMc1c0qb5J3RuOHqLslcF/CZnpJVHRWxflNgxro789nRJuzCn5VmHq0c+5ljaFXRbgROWI8ZDn7yTI3/jCz5LnIFiKDPPf2l+ygaA9aA+OLV5R9YhHFkGGJ4zMkH8ZlUQ1eK/ccCePoBH6Y8uFcCqBCclADaE6H52BybsQhDew+sDXLzXCwBLNMakotpOooMBCSER7DWA3dhR5zTksPWYh3tHwNJIWLAZ/hsLM2qwj0iA+aHWk/cDFm0+CVjkMmAF6o9UNwSw7K1+YnpSVy447XtLwPJ8KyAD1k+14c07pXAscdCeGhu2YzoMHIgyIwxau3JOfmAcYPkHCAd6a0zbs2ZVsZEtb3gk5pcWps27pg8owwH52/aIh3PufijLgyv7rXoJoEzlwH6jAJZOB1jeCmMLcjHvfoySxuXAmlY8BLD2JJw2cQNYNIAuYelyErA0EoPxXoAFN4Dn8cbjgA2zqqoMWDQWYur4yTHAcvQnTC3yPRqwbuApzztAADYeG6HuHFjyAOyWtNaHinve9mCb7jHEKDstPi2N/f2L56R4WoPqBpP4dR3+NlMsbmgKMc94bEDl9U4HPyMLKLCc1TxFcNq23JQfjYzKyQ8RHmPdxuBh/L2hk/TX1GEmkfKj/YxoNAKuaOxXT03rsLcvRUjjTS1rWoDTyG6iYb4T5dEu7pN2RjtPrAVDY38sYF+TpYDQ2It6zdHHpsdcRVQADX1Lx1EIXFAPsr4ts8q8yjVTxaWRQR1mr5jMSrI87OlGzdTLJjmx3OBBODX6lDI4mhEOJP+Y/I/Pz03Y4OM+aSz30Nh4lAR+uQ9BhInXMFEHhKzwwTGlvaXfPDVTvHJPwQexrMlshIdLBcxdURgGpPHIBD+Y5HG3VKe+uePE2hENCcKDY/1Lx5GLdRteMBfk4vS6LeolLPcx689PjhWmVSAojfmGzWvnwHcnodUcmBZeRvCZ1ZqUt9XAlCD6Na1hGVC+uFdMW/Pvk3LsvIWUUPRGZpfDZxCyETixg2q6YO+XfeMxrX+LaqxNxMZjjoUL55Xi9T/GR33BAe82qcbiki8GBc6h10ifsykgL7hYt5JHU6f2cbGZTvQnhw9dai+5oymEnSKo9Bm9gyICEJz8y5//pC5GQBz7pIgtnFUBgiErRz6JiKBtEEIQGIh4K2kxH/EbItzoB7E8tEcnLOlwF5YBQRkU+YPPcOY4ajcfeEHUySHsW+IRDeV7SiN4xHqMjuShLDkkWYCCQDxOXU7UE04c6dbfWQY7eKDAQcjCKoFNcywWhKz24LPaRApyUA8PU4dsKEt+LHZXA/INPVOLhYRgtaLpgBMR9DEayKlPBpD3Mg5Xv06UDnp+fWL13lGUjIeskbn02Ykx01h4Mh5iHaufJhgN4XxNEEDjASM0AhLgvy1g8aCDAD/OFkVa/s1zrRFFgg9r0DsCxZZAusbRyYGlLBqeb96TFgQPtCwPy9GeNrBuLbrXsXQ469iIosGPk/90UhC8g0ilbflZI0AAWGQOekMnKGLbjjLMexF5Ig95SYMoxaD8b01P0YOkEc27h8YWbEe0DGMODeLZYU6DhqQMtHcUFSOmYMB+TsCah6sSVIXJQHMpQIPZ5wwzQhqLZjOr+s1zLKvyZgkm2NNlEgKzxv08fqqsHaQtXgtLkojcAHZPAsGDPkVjOW6DHNynXosVF2ZGl0Yx/5AHYO+qI3D4IMoA7HChkXQQGovHCgbcH9ZGPkuNnJj7cmAxynCkDjqPI7q0j/IQgxuvP+ZY8jNPh/kmD4OYYy55maFsDYrsb6tMDqwtKyULNVFuRLJiXWLM8bAZodq4RimY23lpqQH7hakxC1AgAAyw0XHihwwE8yP+SB5enMlim4byR37m5DBN5PEwh0/iXHdTXQvyePKae3R6HIOJvKrWBKQW5LIAd9gqXbORYK+pK6wHzxCtaI7BEYToJAIU8UQCdbCMY5ckyB9fbINEerQrfrOeZGkRxEZCvwa71+LKwHKPAEgQzlLeH0x1+VEZcgaIwSi3ePDhUCF/wEp+vml+1IKDme/p0m78gZjbW7FimCEAi3FOAELISkwX0xvEATB776FGKsJz0o8N8aiQBtMRZlaj9VG4+OYEBp4mDg/lODFxUa/OjR0hGsmpi3ipCVht61FONhrUPusU3l3MGeiIEnVvAlAVpxzzTYA17UStanM+p24RCf9hMfiHBXtV7yZelLz8pnoGYLzegI5mjn1astNH7vrhnfLeSO8R+hCTikMFUR/t28Lj5FoJ7EwRxMn70Dfa2Y+1bAqaaFCKT06uy+0UZA46AiyL8QAW2QxY1KcgPMIxmQTmCerkYWkOmuOcBMV8iNDHkQGruSyEpqMAlhEK0fB8dwc2/kaU1jg354N5OAeWvci2xh7d3QFYHutot8aq6/ggBBnTCC36oYDlGeBoHcCGo0RBNPUpZBew0VwGP4BCALwCsIoPQOThtMNWoTykwY93YYVctBJni9Meofm0nwESclAu6uN3N5W+PD3RZF5BEGLCxCN5USaVAJY7C86OEYI3x18IjrYx70aFVIbjgGcZlI8sRhUnFgmUB/DM4bwEM+ZywnW4+8y5kGms5qEisqm7LgfHVHJgPbDQrhiNDSeODsaxYFDdj3BqaI2y2/ePBOxyMW/BmUHMtiW/+SPvZa1t47FSePOEe/QI/cQ5sWu7u3DltoVoid5BtJBphU2CnObkAXOUh/U2hBWMiKAlSEA1r5MkEDJBdmA8TrvBgpMOmGQ6k87gJVEc3rLM+qDTQ9OsYcozoAqiDgYDL/2gQ0kjD85BbCTAByF5tW3clzU38x6eJWVYkEc9lEGbwyogmx/uYq73mjHFbGuFxloZyRJPwXO9pZHBeeSQlbRuYimG0waRjxdIIy+/6R+CJgxkCDnJyVIkBhj5WIogHyQRLBgRZ5Upw7KOl3fn1G6J+CrTuNbgHEElP7aR+ZNTl8ZWibzOwWPpzoV8h2pfeAMnnismO2aGl4TE+Rw69o48L/5PgOh0GOZExR8YG5Jr3t6mQyCAZA4CCNx7gKYBxxE8eCgrQmx0DssFllqUR2M5LM3JPuQgf/dyB745ewDgoS4cG4eNHEdpWHXkTxR252B5xBwavKmfJwfiGlnyB58pT1pOyHpbKwmIe2wYsHEQPBhA8RAWv8nD0/exH0sK24s/p1h3WDFlKaYr7+MTgaXz0BKAjTUXZoX15pKAzRnCNAghniqADQ3D9ObAPujBZ3jkT9txTRQpX/sCELHS+wEbMvEND05jcqjuUYGl4zk2ylQUINBPPH4S19TTDaySOsifaG9rLOv4bmB55V60l8I5sAxugH1awNL+IPdDuoBFoJzIHxr7aMD6G1JpOBqbH315N8CyIM/NWwAbMqJ9cUoR2dEClia5FcjabMWY+wEWCnD9ypLsg4ewTtJY+J0EbJsDwJbN0+2uP/IcB+wtxeiRhTK0B1DjsUnS+D8AcJ6MZMJ4f9VRYD2Ig4Ur/aKcJ3ZXIDQS80ejScFbI8IRppj7xHQJ2LP1BAOIznQOfs1pQQLScR9TxZPh0emYYebxmB+9VOcnpojFfxDRHZYFNJtPNHaxxn/24B3BOVscrlwO5td8cLDJYZvkBVs4aUneQaxT+7oTsxxmwdTpUQ9zOk5ZtA0RCf255xy5Mgaqk7VmzLncwT/onnMZXMgfHNi/JRrl4moNL2AvqZ9DYwnMIAeH86DSxUq5uSepuKTjpgUIsV6IRwo5dMWcAtEfmFV7d6JKcE2EJWK85IFIZxAEAVB+3atYM3WF0JEv/65p3Rr3YTWnze2KPBLSkA7zd13zPYF5iNHOab8glgkE+XlFLRJZGWl1nEKgFFrB0s0l9pIcCIvljqd0frI+D1+BO9RjrzLK6mZtf9Kg9W7pfGIPy8jRn1aX6cearM+62hiJTGvks9aqmSwz49w1ctBbvEeZTQzaWhKQTUwjREMX5PSEc8CoQ1PyJwEIWcWLlhEE7zV/awwVYzYIJqjNRniahOFCcOLP4Vl6js5PhhnvbIjlOILS8HgaHT7IcHVnx+oJvjkX6j6jF3rOWcjQY8Wxjo18WKIZ7mcBGPrAtS1ytb8Bi6f+PLrjtQIs/y9C7nMUzW4X7PqFJg4XIUXyMp9e1gZ+tEPdrtOUe+KrNTcXIo7ChOXkmnKhrVyzjfqdlU177aBNJXMC1rbQdJOOO43XJ+eAsY9WdT/iAbD8lyyxcAZYnBIqQgS+OTFA44M4l4wjBkAQIBOmPGlUB7BtDg4snU5NtibVaL4mYN2kO992Dd5ogOWlV6zKsRgBbMhJR00XwDsHdXKXxtKeIMphyuOQHen0A+9wzIGN/Cd9I388jQ9/gH1SjpAvotSHqmhRXnIASx6AjQefu/kil55YTt8FWO22wf9/AMm4Nqszdx73AAAAAElFTkSuQmCC;flipH=1;clipPath=inset(26.27% 24.58% 23.73% 27.97%);imageBorder=#007FFF;" parent="1" vertex="1">
          <mxGeometry x="140" y="190" width="47.45" height="50" as="geometry" />
        </mxCell>
        <mxCell id="elf1hlTlJ4yZ5ydXjCup-3" value="" style="rounded=0;whiteSpace=wrap;html=1;fillColor=none;strokeColor=#007FFF;" parent="1" vertex="1">
          <mxGeometry x="60" y="180" width="40" height="40" as="geometry" />
        </mxCell>
        <mxCell id="elf1hlTlJ4yZ5ydXjCup-5" value="" style="endArrow=none;html=1;rounded=0;exitX=1;exitY=0;exitDx=0;exitDy=0;entryX=0;entryY=0;entryDx=0;entryDy=0;strokeColor=#007FFF;" parent="1" source="elf1hlTlJ4yZ5ydXjCup-3" target="elf1hlTlJ4yZ5ydXjCup-2" edge="1">
          <mxGeometry width="50" height="50" relative="1" as="geometry">
            <mxPoint x="320" y="270" as="sourcePoint" />
            <mxPoint x="370" y="220" as="targetPoint" />
          </mxGeometry>
        </mxCell>
        <mxCell id="elf1hlTlJ4yZ5ydXjCup-6" value="" style="endArrow=none;html=1;rounded=0;exitX=1;exitY=0;exitDx=0;exitDy=0;entryX=0;entryY=1;entryDx=0;entryDy=0;strokeColor=#007FFF;" parent="1" target="elf1hlTlJ4yZ5ydXjCup-2" edge="1">
          <mxGeometry width="50" height="50" relative="1" as="geometry">
            <mxPoint x="100" y="220" as="sourcePoint" />
            <mxPoint x="140" y="240" as="targetPoint" />
          </mxGeometry>
        </mxCell>
        <mxCell id="elf1hlTlJ4yZ5ydXjCup-93" style="edgeStyle=orthogonalEdgeStyle;rounded=0;orthogonalLoop=1;jettySize=auto;html=1;exitX=0.5;exitY=1;exitDx=0;exitDy=0;entryX=0;entryY=0.5;entryDx=0;entryDy=0;fillColor=#dae8fc;strokeColor=#6c8ebf;" parent="1" source="elf1hlTlJ4yZ5ydXjCup-25" target="elf1hlTlJ4yZ5ydXjCup-65" edge="1">
          <mxGeometry relative="1" as="geometry" />
        </mxCell>
        <mxCell id="elf1hlTlJ4yZ5ydXjCup-25" value="" style="shape=parallelogram;perimeter=parallelogramPerimeter;whiteSpace=wrap;html=1;fixedSize=1;size=10;rotation=-90;flipH=1;fillColor=#dae8fc;strokeColor=#6c8ebf;" parent="1" vertex="1">
          <mxGeometry x="220" y="210" width="50" height="10" as="geometry" />
        </mxCell>
        <mxCell id="elf1hlTlJ4yZ5ydXjCup-42" value="" style="rounded=0;whiteSpace=wrap;html=1;fillColor=none;strokeColor=#009900;" parent="1" vertex="1">
          <mxGeometry x="140" y="190" width="12" height="12" as="geometry" />
        </mxCell>
        <mxCell id="elf1hlTlJ4yZ5ydXjCup-43" value="" style="rounded=0;whiteSpace=wrap;html=1;fillColor=#97D077;strokeColor=#009900;" parent="1" vertex="1">
          <mxGeometry x="200" y="200" width="5" height="5" as="geometry" />
        </mxCell>
        <mxCell id="elf1hlTlJ4yZ5ydXjCup-47" value="" style="endArrow=none;html=1;rounded=0;exitX=1;exitY=0;exitDx=0;exitDy=0;entryX=0;entryY=0;entryDx=0;entryDy=0;strokeColor=#009900;" parent="1" source="elf1hlTlJ4yZ5ydXjCup-42" target="elf1hlTlJ4yZ5ydXjCup-15" edge="1">
          <mxGeometry width="50" height="50" relative="1" as="geometry">
            <mxPoint x="190" y="300" as="sourcePoint" />
            <mxPoint x="240" y="250" as="targetPoint" />
          </mxGeometry>
        </mxCell>
        <mxCell id="elf1hlTlJ4yZ5ydXjCup-48" value="" style="endArrow=none;html=1;rounded=0;entryX=0;entryY=1;entryDx=0;entryDy=0;exitX=1;exitY=1;exitDx=0;exitDy=0;strokeColor=#009900;" parent="1" source="elf1hlTlJ4yZ5ydXjCup-42" target="elf1hlTlJ4yZ5ydXjCup-43" edge="1">
          <mxGeometry width="50" height="50" relative="1" as="geometry">
            <mxPoint x="160" y="200" as="sourcePoint" />
            <mxPoint x="204.55" y="210" as="targetPoint" />
          </mxGeometry>
        </mxCell>
        <mxCell id="elf1hlTlJ4yZ5ydXjCup-50" value="" style="shape=parallelogram;perimeter=parallelogramPerimeter;whiteSpace=wrap;html=1;fixedSize=1;rotation=0;size=10;fillColor=#D5E8D4;strokeColor=#009900;" parent="1" vertex="1">
          <mxGeometry x="200" y="190" width="15" height="10" as="geometry" />
        </mxCell>
        <mxCell id="elf1hlTlJ4yZ5ydXjCup-62" value="&lt;font style=&quot;font-size: 13px;&quot;&gt;32x32&lt;/font&gt;" style="text;strokeColor=none;align=center;fillColor=none;html=1;verticalAlign=middle;whiteSpace=wrap;rounded=0;fontSize=11;" parent="1" vertex="1">
          <mxGeometry x="45" y="240" width="70" height="16" as="geometry" />
        </mxCell>
        <mxCell id="elf1hlTlJ4yZ5ydXjCup-63" value="&lt;font style=&quot;font-size: 13px;&quot;&gt;12x12&lt;/font&gt;" style="text;strokeColor=none;align=center;fillColor=none;html=1;verticalAlign=middle;whiteSpace=wrap;rounded=0;fontSize=11;" parent="1" vertex="1">
          <mxGeometry x="128.73000000000002" y="240" width="70" height="16" as="geometry" />
        </mxCell>
        <mxCell id="elf1hlTlJ4yZ5ydXjCup-64" value="&lt;font style=&quot;font-size: 13px;&quot;&gt;10x10x32&lt;/font&gt;" style="text;strokeColor=none;align=center;fillColor=none;html=1;verticalAlign=middle;whiteSpace=wrap;rounded=0;fontSize=11;" parent="1" vertex="1">
          <mxGeometry x="188.73000000000002" y="240" width="70" height="16" as="geometry" />
        </mxCell>
        <mxCell id="elf1hlTlJ4yZ5ydXjCup-94" style="edgeStyle=orthogonalEdgeStyle;rounded=0;orthogonalLoop=1;jettySize=auto;html=1;exitX=1;exitY=0.5;exitDx=0;exitDy=0;entryX=0;entryY=0.5;entryDx=0;entryDy=0;fillColor=#dae8fc;strokeColor=#6c8ebf;" parent="1" source="elf1hlTlJ4yZ5ydXjCup-65" target="elf1hlTlJ4yZ5ydXjCup-66" edge="1">
          <mxGeometry relative="1" as="geometry" />
        </mxCell>
        <mxCell id="elf1hlTlJ4yZ5ydXjCup-65" value="" style="rounded=0;whiteSpace=wrap;html=1;fillColor=#dae8fc;strokeColor=#6c8ebf;" parent="1" vertex="1">
          <mxGeometry x="265" y="190" width="45" height="50" as="geometry" />
        </mxCell>
        <mxCell id="elf1hlTlJ4yZ5ydXjCup-95" style="edgeStyle=orthogonalEdgeStyle;rounded=0;orthogonalLoop=1;jettySize=auto;html=1;exitX=1;exitY=0.5;exitDx=0;exitDy=0;entryX=0;entryY=0.5;entryDx=0;entryDy=0;fillColor=#dae8fc;strokeColor=#6c8ebf;" parent="1" source="elf1hlTlJ4yZ5ydXjCup-66" target="elf1hlTlJ4yZ5ydXjCup-67" edge="1">
          <mxGeometry relative="1" as="geometry" />
        </mxCell>
        <mxCell id="elf1hlTlJ4yZ5ydXjCup-66" value="" style="rounded=0;whiteSpace=wrap;html=1;fillColor=#dae8fc;strokeColor=#6c8ebf;" parent="1" vertex="1">
          <mxGeometry x="325" y="190" width="40" height="50" as="geometry" />
        </mxCell>
        <mxCell id="elf1hlTlJ4yZ5ydXjCup-96" style="edgeStyle=orthogonalEdgeStyle;rounded=0;orthogonalLoop=1;jettySize=auto;html=1;exitX=1;exitY=0.5;exitDx=0;exitDy=0;entryX=0;entryY=0.5;entryDx=0;entryDy=0;fillColor=#dae8fc;strokeColor=#6c8ebf;" parent="1" source="elf1hlTlJ4yZ5ydXjCup-67" target="elf1hlTlJ4yZ5ydXjCup-68" edge="1">
          <mxGeometry relative="1" as="geometry" />
        </mxCell>
        <mxCell id="elf1hlTlJ4yZ5ydXjCup-67" value="" style="rounded=0;whiteSpace=wrap;html=1;fillColor=#dae8fc;strokeColor=#6c8ebf;" parent="1" vertex="1">
          <mxGeometry x="382" y="190" width="30" height="50" as="geometry" />
        </mxCell>
        <mxCell id="elf1hlTlJ4yZ5ydXjCup-97" style="edgeStyle=orthogonalEdgeStyle;rounded=0;orthogonalLoop=1;jettySize=auto;html=1;exitX=1;exitY=0.5;exitDx=0;exitDy=0;entryX=0;entryY=0.5;entryDx=0;entryDy=0;fillColor=#dae8fc;strokeColor=#6c8ebf;" parent="1" target="elf1hlTlJ4yZ5ydXjCup-70" edge="1">
          <mxGeometry relative="1" as="geometry">
            <mxPoint x="442.5" y="215" as="sourcePoint" />
          </mxGeometry>
        </mxCell>
        <mxCell id="elf1hlTlJ4yZ5ydXjCup-68" value="" style="rounded=0;whiteSpace=wrap;html=1;fillColor=#dae8fc;strokeColor=#6c8ebf;" parent="1" vertex="1">
          <mxGeometry x="430" y="190" width="20" height="50" as="geometry" />
        </mxCell>
        <mxCell id="elf1hlTlJ4yZ5ydXjCup-70" value="" style="rounded=0;whiteSpace=wrap;html=1;fillColor=#dae8fc;strokeColor=#6c8ebf;" parent="1" vertex="1">
          <mxGeometry x="467.5" y="190" width="15" height="50" as="geometry" />
        </mxCell>
        <mxCell id="elf1hlTlJ4yZ5ydXjCup-71" value="&lt;font style=&quot;font-size: 13px;&quot;&gt;8x8x32&lt;/font&gt;" style="text;strokeColor=none;align=center;fillColor=none;html=1;verticalAlign=middle;whiteSpace=wrap;rounded=0;fontSize=11;" parent="1" vertex="1">
          <mxGeometry x="252.5" y="240" width="70" height="16" as="geometry" />
        </mxCell>
        <mxCell id="elf1hlTlJ4yZ5ydXjCup-72" value="&lt;font style=&quot;font-size: 13px;&quot;&gt;6x6x32&lt;/font&gt;" style="text;strokeColor=none;align=center;fillColor=none;html=1;verticalAlign=middle;whiteSpace=wrap;rounded=0;fontSize=11;" parent="1" vertex="1">
          <mxGeometry x="310" y="240" width="70" height="16" as="geometry" />
        </mxCell>
        <mxCell id="elf1hlTlJ4yZ5ydXjCup-73" value="&lt;font style=&quot;font-size: 13px;&quot;&gt;4x4x32&lt;/font&gt;" style="text;strokeColor=none;align=center;fillColor=none;html=1;verticalAlign=middle;whiteSpace=wrap;rounded=0;fontSize=11;" parent="1" vertex="1">
          <mxGeometry x="360" y="240" width="70" height="16" as="geometry" />
        </mxCell>
        <mxCell id="elf1hlTlJ4yZ5ydXjCup-74" value="&lt;font style=&quot;font-size: 13px;&quot;&gt;2x2x32&lt;/font&gt;" style="text;strokeColor=none;align=center;fillColor=none;html=1;verticalAlign=middle;whiteSpace=wrap;rounded=0;fontSize=11;" parent="1" vertex="1">
          <mxGeometry x="408" y="240" width="70" height="16" as="geometry" />
        </mxCell>
        <mxCell id="elf1hlTlJ4yZ5ydXjCup-75" value="&lt;font style=&quot;font-size: 13px;&quot;&gt;32&lt;/font&gt;" style="text;strokeColor=none;align=center;fillColor=none;html=1;verticalAlign=middle;whiteSpace=wrap;rounded=0;fontSize=11;" parent="1" vertex="1">
          <mxGeometry x="443" y="240" width="70" height="16" as="geometry" />
        </mxCell>
        <mxCell id="elf1hlTlJ4yZ5ydXjCup-85" value="&lt;font style=&quot;font-size: 16px;&quot; color=&quot;#2d5ec2&quot;&gt;&lt;span style=&quot;caret-color: rgb(45, 94, 194);&quot;&gt;CNN&lt;/span&gt;&lt;/font&gt;" style="text;strokeColor=none;align=center;fillColor=none;html=1;verticalAlign=middle;whiteSpace=wrap;rounded=0;" parent="1" vertex="1">
          <mxGeometry x="200" y="160" width="50" height="40" as="geometry" />
        </mxCell>
        <mxCell id="elf1hlTlJ4yZ5ydXjCup-91" value="&lt;font style=&quot;font-size: 16px;&quot; color=&quot;#2d5ec2&quot;&gt;&lt;span style=&quot;caret-color: rgb(45, 94, 194);&quot;&gt;Crop&lt;/span&gt;&lt;/font&gt;" style="text;strokeColor=none;align=center;fillColor=none;html=1;verticalAlign=middle;whiteSpace=wrap;rounded=0;" parent="1" vertex="1">
          <mxGeometry x="138.73" y="159" width="50" height="40" as="geometry" />
        </mxCell>
        <mxCell id="elf1hlTlJ4yZ5ydXjCup-92" value="&lt;font style=&quot;font-size: 16px;&quot; color=&quot;#700000&quot;&gt;Input&lt;/font&gt;" style="text;strokeColor=none;align=center;fillColor=none;html=1;verticalAlign=middle;whiteSpace=wrap;rounded=0;fontSize=11;" parent="1" vertex="1">
          <mxGeometry x="45" y="144" width="70" height="16" as="geometry" />
        </mxCell>
        <mxCell id="elf1hlTlJ4yZ5ydXjCup-103" style="edgeStyle=orthogonalEdgeStyle;rounded=0;orthogonalLoop=1;jettySize=auto;html=1;entryX=0;entryY=0.5;entryDx=0;entryDy=0;fillColor=#fff2cc;strokeColor=#d6b656;exitX=0.968;exitY=0.651;exitDx=0;exitDy=0;exitPerimeter=0;" parent="1" source="elf1hlTlJ4yZ5ydXjCup-99" target="elf1hlTlJ4yZ5ydXjCup-101" edge="1">
          <mxGeometry relative="1" as="geometry" />
        </mxCell>
        <mxCell id="elf1hlTlJ4yZ5ydXjCup-98" value="" style="shape=trapezoid;perimeter=trapezoidPerimeter;whiteSpace=wrap;html=1;fixedSize=1;fillColor=#fff2cc;strokeColor=#d6b656;rotation=90;" parent="1" vertex="1">
          <mxGeometry x="478.24" y="181.99" width="93.12" height="53.52" as="geometry" />
        </mxCell>
        <mxCell id="elf1hlTlJ4yZ5ydXjCup-99" value="&lt;font style=&quot;font-size: 16px;&quot; color=&quot;#c2a44e&quot;&gt;&lt;span style=&quot;caret-color: rgb(45, 94, 194);&quot;&gt;MLP&lt;/span&gt;&lt;/font&gt;&lt;div&gt;&lt;span style=&quot;caret-color: rgb(45, 94, 194); color: rgb(194, 164, 78);&quot;&gt;&lt;font style=&quot;font-size: 13px;&quot;&gt;Softmax&lt;/font&gt;&lt;/span&gt;&lt;br&gt;&lt;/div&gt;" style="text;strokeColor=none;align=center;fillColor=none;html=1;verticalAlign=middle;whiteSpace=wrap;rounded=0;" parent="1" vertex="1">
          <mxGeometry x="499.8" y="188.75" width="50" height="40" as="geometry" />
        </mxCell>
        <mxCell id="elf1hlTlJ4yZ5ydXjCup-100" style="edgeStyle=orthogonalEdgeStyle;rounded=0;orthogonalLoop=1;jettySize=auto;html=1;exitX=1;exitY=0.5;exitDx=0;exitDy=0;fillColor=#fff2cc;strokeColor=#d6b656;" parent="1" source="elf1hlTlJ4yZ5ydXjCup-70" edge="1">
          <mxGeometry relative="1" as="geometry">
            <mxPoint x="500" y="215" as="targetPoint" />
          </mxGeometry>
        </mxCell>
        <mxCell id="elf1hlTlJ4yZ5ydXjCup-120" value="" style="group" parent="1" vertex="1" connectable="0">
          <mxGeometry x="567" y="185" width="8" height="60" as="geometry" />
        </mxCell>
        <mxCell id="elf1hlTlJ4yZ5ydXjCup-101" value="" style="rounded=0;whiteSpace=wrap;html=1;fillColor=#fff2cc;strokeColor=#d6b656;container=0;" parent="elf1hlTlJ4yZ5ydXjCup-120" vertex="1">
          <mxGeometry width="8" height="60" as="geometry" />
        </mxCell>
        <mxCell id="elf1hlTlJ4yZ5ydXjCup-104" value="" style="rounded=0;whiteSpace=wrap;html=1;fillColor=#F7DFC6;strokeColor=none;container=0;" parent="elf1hlTlJ4yZ5ydXjCup-120" vertex="1">
          <mxGeometry x="1" y="53" width="6" height="6" as="geometry" />
        </mxCell>
        <mxCell id="elf1hlTlJ4yZ5ydXjCup-105" value="" style="rounded=0;whiteSpace=wrap;html=1;fillColor=#ffe6cc;strokeColor=none;container=0;" parent="elf1hlTlJ4yZ5ydXjCup-120" vertex="1">
          <mxGeometry x="1" y="47" width="6" height="6" as="geometry" />
        </mxCell>
        <mxCell id="elf1hlTlJ4yZ5ydXjCup-106" value="" style="rounded=0;whiteSpace=wrap;html=1;fillColor=#EBD4BC;strokeColor=none;container=0;" parent="elf1hlTlJ4yZ5ydXjCup-120" vertex="1">
          <mxGeometry x="1" y="41" width="6" height="6" as="geometry" />
        </mxCell>
        <mxCell id="elf1hlTlJ4yZ5ydXjCup-107" value="" style="rounded=0;whiteSpace=wrap;html=1;fillColor=#FFD4BF;strokeColor=none;container=0;" parent="elf1hlTlJ4yZ5ydXjCup-120" vertex="1">
          <mxGeometry x="1" y="35" width="6" height="6" as="geometry" />
        </mxCell>
        <mxCell id="elf1hlTlJ4yZ5ydXjCup-108" value="" style="rounded=0;whiteSpace=wrap;html=1;fillColor=#ffc4ab;strokeColor=none;container=0;" parent="elf1hlTlJ4yZ5ydXjCup-120" vertex="1">
          <mxGeometry x="1" y="29" width="6" height="6" as="geometry" />
        </mxCell>
        <mxCell id="elf1hlTlJ4yZ5ydXjCup-109" value="" style="rounded=0;whiteSpace=wrap;html=1;fillColor=#FFA98A;strokeColor=none;container=0;" parent="elf1hlTlJ4yZ5ydXjCup-120" vertex="1">
          <mxGeometry x="1" y="23" width="6" height="6" as="geometry" />
        </mxCell>
        <mxCell id="elf1hlTlJ4yZ5ydXjCup-110" value="" style="rounded=0;whiteSpace=wrap;html=1;fillColor=#E3843B;strokeColor=none;container=0;" parent="elf1hlTlJ4yZ5ydXjCup-120" vertex="1">
          <mxGeometry x="1" y="17" width="6" height="6" as="geometry" />
        </mxCell>
        <mxCell id="elf1hlTlJ4yZ5ydXjCup-111" value="" style="rounded=0;whiteSpace=wrap;html=1;fillColor=#FFA98A;strokeColor=none;container=0;" parent="elf1hlTlJ4yZ5ydXjCup-120" vertex="1">
          <mxGeometry x="1" y="11" width="6" height="6" as="geometry" />
        </mxCell>
        <mxCell id="elf1hlTlJ4yZ5ydXjCup-113" value="" style="rounded=0;whiteSpace=wrap;html=1;fillColor=#ffe6cc;strokeColor=none;container=0;" parent="elf1hlTlJ4yZ5ydXjCup-120" vertex="1">
          <mxGeometry x="1" y="1.5" width="6" height="6" as="geometry" />
        </mxCell>
        <mxCell id="elf1hlTlJ4yZ5ydXjCup-112" value="" style="rounded=0;whiteSpace=wrap;html=1;fillColor=#FFD7BD;strokeColor=none;container=0;" parent="elf1hlTlJ4yZ5ydXjCup-120" vertex="1">
          <mxGeometry x="1" y="5.230000000000018" width="6" height="6" as="geometry" />
        </mxCell>
      </root>
    </mxGraphModel>
  </diagram>
</mxfile>
